<svg width="430" height="70" viewBox="0 0 430 70" fill="none" xmlns="http://www.w3.org/2000/svg">
<rect width="430" height="68" transform="translate(0 1)" fill="#E7EDF4" fill-opacity="0.87"/>
<g clip-path="url(#clip0_2726_145)">
<g clip-path="url(#clip1_2726_145)">
<path fill-rule="evenodd" clip-rule="evenodd" d="M45 180.5V0.5H70V180.5H45ZM67 76.5H57.5H48C48 71.9436 51.8161 64.5 57.5 64.5C63.1839 64.5 67 71.9436 67 76.5ZM48.0001 78.5L57.5001 110.5L67.0001 78.5H48.0001Z" fill="white"/>
<line x1="111.5" y1="180.5" x2="111.5" y2="0.5" stroke="white" stroke-width="5"/>
<line x1="155.5" y1="180.5" x2="155.5" y2="0.5" stroke="white" stroke-width="5"/>
<path fill-rule="evenodd" clip-rule="evenodd" d="M202 180.5V0.5H227V180.5H202ZM224 76.5H214.5H205C205 71.9436 208.816 64.5 214.5 64.5C220.184 64.5 224 71.9436 224 76.5ZM205 78.5L214.5 110.5L224 78.5H205Z" fill="white"/>
<line x1="268.5" y1="180.5" x2="268.5" y2="0.5" stroke="white" stroke-width="5"/>
<line x1="312.5" y1="180.5" x2="312.5" y2="0.5" stroke="white" stroke-width="5"/>
<path fill-rule="evenodd" clip-rule="evenodd" d="M359 180.5V0.5H384V180.5H359ZM381 76.5H371.5H362C362 71.9436 365.816 64.5 371.5 64.5C377.184 64.5 381 71.9436 381 76.5ZM362 78.5L371.5 110.5L381 78.5H362Z" fill="white"/>
<line x1="425.5" y1="180.5" x2="425.5" y2="0.5" stroke="white" stroke-width="5"/>
</g>
<rect x="2" y="2.5" width="1436" height="16" stroke="white" stroke-width="4"/>
</g>
<path d="M24.3176 35.2727C24.3176 36.3037 24.1221 37.1809 23.7313 37.9041C23.3435 38.6274 22.8141 39.1798 22.1432 39.5614C21.4753 39.94 20.7244 40.1293 19.8904 40.1293C19.0502 40.1293 18.2961 39.9384 17.6283 39.5568C16.9604 39.1752 16.4326 38.6228 16.0448 37.8995C15.657 37.1763 15.4632 36.3007 15.4632 35.2727C15.4632 34.2417 15.657 33.3646 16.0448 32.6413C16.4326 31.9181 16.9604 31.3672 17.6283 30.9886C18.2961 30.607 19.0502 30.4162 19.8904 30.4162C20.7244 30.4162 21.4753 30.607 22.1432 30.9886C22.8141 31.3672 23.3435 31.9181 23.7313 32.6413C24.1221 33.3646 24.3176 34.2417 24.3176 35.2727ZM22.2909 35.2727C22.2909 34.6049 22.1909 34.0417 21.9909 33.5831C21.7939 33.1245 21.5154 32.7768 21.1553 32.5398C20.7952 32.3028 20.3736 32.1843 19.8904 32.1843C19.4072 32.1843 18.9855 32.3028 18.6254 32.5398C18.2654 32.7768 17.9853 33.1245 17.7852 33.5831C17.5883 34.0417 17.4898 34.6049 17.4898 35.2727C17.4898 35.9406 17.5883 36.5038 17.7852 36.9624C17.9853 37.4209 18.2654 37.7687 18.6254 38.0057C18.9855 38.2427 19.4072 38.3612 19.8904 38.3612C20.3736 38.3612 20.7952 38.2427 21.1553 38.0057C21.5154 37.7687 21.7939 37.4209 21.9909 36.9624C22.1909 36.5038 22.2909 35.9406 22.2909 35.2727ZM31.6381 30.5455H33.6371V36.6854C33.6371 37.3748 33.4724 37.978 33.1431 38.495C32.8169 39.0121 32.3598 39.4152 31.772 39.7045C31.1842 39.9908 30.4994 40.1339 29.7177 40.1339C28.9329 40.1339 28.2466 39.9908 27.6587 39.7045C27.0709 39.4152 26.6139 39.0121 26.2876 38.495C25.9614 37.978 25.7983 37.3748 25.7983 36.6854V30.5455H27.7972V36.5146C27.7972 36.8746 27.8757 37.1947 28.0327 37.4748C28.1927 37.7549 28.4174 37.9749 28.7067 38.1349C28.996 38.295 29.333 38.375 29.7177 38.375C30.1055 38.375 30.4425 38.295 30.7287 38.1349C31.018 37.9749 31.2411 37.7549 31.3981 37.4748C31.5581 37.1947 31.6381 36.8746 31.6381 36.5146V30.5455ZM35.2817 40V30.5455H39.0118C39.7258 30.5455 40.3352 30.6732 40.8399 30.9286C41.3477 31.181 41.734 31.5395 41.9987 32.0043C42.2664 32.4659 42.4003 33.0091 42.4003 33.6339C42.4003 34.2617 42.2649 34.8018 41.9941 35.2543C41.7232 35.7036 41.3308 36.0483 40.8169 36.2884C40.306 36.5284 39.6874 36.6484 38.961 36.6484H36.4635V35.0419H38.6379C39.0195 35.0419 39.3365 34.9896 39.5889 34.8849C39.8412 34.7803 40.029 34.6233 40.1521 34.4141C40.2783 34.2048 40.3414 33.9447 40.3414 33.6339C40.3414 33.32 40.2783 33.0553 40.1521 32.8398C40.029 32.6244 39.8397 32.4613 39.5843 32.3505C39.3319 32.2366 39.0133 32.1797 38.6286 32.1797H37.2806V40H35.2817ZM40.3875 35.6974L42.7373 40H40.5306L38.2316 35.6974H40.3875ZM46.8217 30.5455H49.2869L51.8906 36.8977H52.0014L54.6051 30.5455H57.0703V40H55.1314V33.8462H55.0529L52.6062 39.9538H51.2859L48.8391 33.8232H48.7607V40H46.8217V30.5455ZM60.7162 30.5455V40H58.7172V30.5455H60.7162ZM67.4897 33.2646C67.4528 32.8922 67.2943 32.6029 67.0142 32.3967C66.7341 32.1905 66.354 32.0874 65.8739 32.0874C65.5477 32.0874 65.2723 32.1335 65.0476 32.2259C64.8229 32.3151 64.6506 32.4397 64.5305 32.5998C64.4136 32.7598 64.3551 32.9414 64.3551 33.1445C64.349 33.3138 64.3844 33.4615 64.4613 33.5877C64.5413 33.7139 64.6506 33.8232 64.7891 33.9155C64.9276 34.0047 65.0876 34.0832 65.2692 34.1509C65.4508 34.2156 65.6446 34.271 65.8509 34.3171L66.7003 34.5202C67.1127 34.6126 67.4912 34.7357 67.8359 34.8896C68.1806 35.0434 68.4792 35.2327 68.7315 35.4574C68.9839 35.6821 69.1793 35.9467 69.3178 36.2514C69.4594 36.5561 69.5317 36.9054 69.5348 37.2994C69.5317 37.878 69.384 38.3796 69.0916 38.8043C68.8023 39.226 68.3838 39.5537 67.8359 39.7876C67.2912 40.0185 66.6341 40.1339 65.8647 40.1339C65.1014 40.1339 64.4367 40.0169 63.8704 39.783C63.3072 39.5491 62.8671 39.2029 62.5501 38.7443C62.2362 38.2827 62.0715 37.7118 62.0561 37.0316H63.9904C64.012 37.3486 64.1027 37.6133 64.2628 37.8256C64.4259 38.0349 64.6429 38.1934 64.9137 38.3011C65.1876 38.4058 65.4969 38.4581 65.8416 38.4581C66.1802 38.4581 66.4741 38.4089 66.7234 38.3104C66.9757 38.2119 67.1712 38.0749 67.3097 37.8995C67.4482 37.7241 67.5174 37.5225 67.5174 37.2947C67.5174 37.0824 67.4543 36.9039 67.3281 36.7592C67.205 36.6146 67.0234 36.4915 66.7834 36.3899C66.5464 36.2884 66.2556 36.196 65.9109 36.1129L64.8814 35.8544C64.0843 35.6605 63.4549 35.3574 62.9933 34.945C62.5316 34.5326 62.3023 33.977 62.3054 33.2784C62.3023 32.706 62.4547 32.2058 62.7624 31.7781C63.0733 31.3503 63.4995 31.0163 64.0412 30.7763C64.5829 30.5362 65.1984 30.4162 65.8878 30.4162C66.5895 30.4162 67.2019 30.5362 67.7251 30.7763C68.2514 31.0163 68.6607 31.3503 68.9531 31.7781C69.2455 32.2058 69.3963 32.7013 69.4055 33.2646H67.4897ZM76.0083 33.2646C75.9713 32.8922 75.8128 32.6029 75.5328 32.3967C75.2527 32.1905 74.8726 32.0874 74.3925 32.0874C74.0663 32.0874 73.7908 32.1335 73.5661 32.2259C73.3415 32.3151 73.1691 32.4397 73.0491 32.5998C72.9321 32.7598 72.8737 32.9414 72.8737 33.1445C72.8675 33.3138 72.9029 33.4615 72.9798 33.5877C73.0599 33.7139 73.1691 33.8232 73.3076 33.9155C73.4461 34.0047 73.6061 34.0832 73.7877 34.1509C73.9693 34.2156 74.1632 34.271 74.3694 34.3171L75.2188 34.5202C75.6312 34.6126 76.0098 34.7357 76.3545 34.8896C76.6992 35.0434 76.9977 35.2327 77.2501 35.4574C77.5025 35.6821 77.6979 35.9467 77.8364 36.2514C77.978 36.5561 78.0503 36.9054 78.0534 37.2994C78.0503 37.878 77.9026 38.3796 77.6102 38.8043C77.3209 39.226 76.9023 39.5537 76.3545 39.7876C75.8097 40.0185 75.1527 40.1339 74.3833 40.1339C73.62 40.1339 72.9552 40.0169 72.3889 39.783C71.8257 39.5491 71.3856 39.2029 71.0686 38.7443C70.7547 38.2827 70.5901 37.7118 70.5747 37.0316H72.509C72.5305 37.3486 72.6213 37.6133 72.7813 37.8256C72.9445 38.0349 73.1614 38.1934 73.4323 38.3011C73.7062 38.4058 74.0155 38.4581 74.3602 38.4581C74.6987 38.4581 74.9926 38.4089 75.2419 38.3104C75.4943 38.2119 75.6897 38.0749 75.8282 37.8995C75.9667 37.7241 76.036 37.5225 76.036 37.2947C76.036 37.0824 75.9729 36.9039 75.8467 36.7592C75.7236 36.6146 75.542 36.4915 75.3019 36.3899C75.065 36.2884 74.7741 36.196 74.4294 36.1129L73.3999 35.8544C72.6028 35.6605 71.9735 35.3574 71.5118 34.945C71.0502 34.5326 70.8209 33.977 70.824 33.2784C70.8209 32.706 70.9732 32.2058 71.281 31.7781C71.5918 31.3503 72.0181 31.0163 72.5597 30.7763C73.1014 30.5362 73.7169 30.4162 74.4063 30.4162C75.108 30.4162 75.7205 30.5362 76.2437 30.7763C76.77 31.0163 77.1793 31.3503 77.4717 31.7781C77.7641 32.2058 77.9149 32.7013 77.9241 33.2646H76.0083ZM81.3968 30.5455V40H79.3979V30.5455H81.3968ZM91.7297 35.2727C91.7297 36.3037 91.5342 37.1809 91.1434 37.9041C90.7556 38.6274 90.2262 39.1798 89.5553 39.5614C88.8875 39.94 88.1365 40.1293 87.3025 40.1293C86.4623 40.1293 85.7082 39.9384 85.0404 39.5568C84.3725 39.1752 83.8447 38.6228 83.4569 37.8995C83.0692 37.1763 82.8753 36.3007 82.8753 35.2727C82.8753 34.2417 83.0692 33.3646 83.4569 32.6413C83.8447 31.9181 84.3725 31.3672 85.0404 30.9886C85.7082 30.607 86.4623 30.4162 87.3025 30.4162C88.1365 30.4162 88.8875 30.607 89.5553 30.9886C90.2262 31.3672 90.7556 31.9181 91.1434 32.6413C91.5342 33.3646 91.7297 34.2417 91.7297 35.2727ZM89.703 35.2727C89.703 34.6049 89.603 34.0417 89.403 33.5831C89.206 33.1245 88.9275 32.7768 88.5674 32.5398C88.2073 32.3028 87.7857 32.1843 87.3025 32.1843C86.8193 32.1843 86.3976 32.3028 86.0376 32.5398C85.6775 32.7768 85.3974 33.1245 85.1974 33.5831C85.0004 34.0417 84.9019 34.6049 84.9019 35.2727C84.9019 35.9406 85.0004 36.5038 85.1974 36.9624C85.3974 37.4209 85.6775 37.7687 86.0376 38.0057C86.3976 38.2427 86.8193 38.3612 87.3025 38.3612C87.7857 38.3612 88.2073 38.2427 88.5674 38.0057C88.9275 37.7687 89.206 37.4209 89.403 36.9624C89.603 36.5038 89.703 35.9406 89.703 35.2727ZM101.118 30.5455V40H99.3919L95.2786 34.0494H95.2093V40H93.2104V30.5455H94.9647L99.0456 36.4915H99.1287V30.5455H101.118ZM111.457 34.4925V36.0529H104.957V34.4925H111.457ZM123.63 33.8555H121.608C121.571 33.5939 121.495 33.3615 121.381 33.1584C121.267 32.9522 121.121 32.7768 120.943 32.6321C120.764 32.4875 120.558 32.3767 120.324 32.2997C120.093 32.2228 119.842 32.1843 119.572 32.1843C119.082 32.1843 118.656 32.3059 118.293 32.549C117.93 32.7891 117.648 33.1399 117.448 33.6016C117.248 34.0601 117.148 34.6172 117.148 35.2727C117.148 35.9467 117.248 36.513 117.448 36.9716C117.651 37.4302 117.934 37.7764 118.297 38.0103C118.661 38.2442 119.081 38.3612 119.558 38.3612C119.826 38.3612 120.073 38.3258 120.301 38.255C120.532 38.1842 120.737 38.0811 120.915 37.9457C121.094 37.8072 121.241 37.6394 121.358 37.4425C121.478 37.2455 121.561 37.0208 121.608 36.7685L123.63 36.7777C123.577 37.2116 123.446 37.6302 123.237 38.0334C123.031 38.4335 122.752 38.792 122.402 39.109C122.054 39.4229 121.638 39.6722 121.155 39.8569C120.675 40.0385 120.132 40.1293 119.525 40.1293C118.682 40.1293 117.928 39.9384 117.263 39.5568C116.602 39.1752 116.079 38.6228 115.694 37.8995C115.312 37.1763 115.121 36.3007 115.121 35.2727C115.121 34.2417 115.315 33.3646 115.703 32.6413C116.091 31.9181 116.617 31.3672 117.282 30.9886C117.947 30.607 118.695 30.4162 119.525 30.4162C120.073 30.4162 120.581 30.4931 121.049 30.647C121.52 30.8009 121.937 31.0256 122.3 31.321C122.663 31.6134 122.959 31.9719 123.186 32.3967C123.417 32.8214 123.565 33.3076 123.63 33.8555ZM125.063 40V30.5455H128.793C129.507 30.5455 130.116 30.6732 130.621 30.9286C131.129 31.181 131.515 31.5395 131.78 32.0043C132.048 32.4659 132.182 33.0091 132.182 33.6339C132.182 34.2617 132.046 34.8018 131.775 35.2543C131.504 35.7036 131.112 36.0483 130.598 36.2884C130.087 36.5284 129.469 36.6484 128.742 36.6484H126.245V35.0419H128.419C128.801 35.0419 129.118 34.9896 129.37 34.8849C129.622 34.7803 129.81 34.6233 129.933 34.4141C130.06 34.2048 130.123 33.9447 130.123 33.6339C130.123 33.32 130.06 33.0553 129.933 32.8398C129.81 32.6244 129.621 32.4613 129.366 32.3505C129.113 32.2366 128.795 32.1797 128.41 32.1797H127.062V40H125.063ZM130.169 35.6974L132.519 40H130.312L128.013 35.6974H130.169ZM133.594 40V30.5455H139.965V32.1935H135.593V34.4464H139.637V36.0945H135.593V38.3519H139.983V40H133.594ZM143.184 40H141.042L144.306 30.5455H146.882L150.141 40H147.999L145.631 32.706H145.557L143.184 40ZM143.05 36.2837H148.11V37.8441H143.05V36.2837ZM149.763 32.1935V30.5455H157.528V32.1935H154.634V40H152.658V32.1935H149.763ZM160.806 30.5455V40H158.807V30.5455H160.806ZM170.359 30.5455V40H168.632L164.519 34.0494H164.45V40H162.451V30.5455H164.205L168.286 36.4915H168.369V30.5455H170.359ZM178.279 33.6016C178.215 33.3769 178.124 33.1784 178.007 33.006C177.89 32.8306 177.747 32.6829 177.578 32.5629C177.411 32.4397 177.221 32.3459 177.005 32.2812C176.793 32.2166 176.557 32.1843 176.299 32.1843C175.816 32.1843 175.391 32.3043 175.025 32.5444C174.662 32.7844 174.378 33.1338 174.175 33.5923C173.972 34.0478 173.871 34.6049 173.871 35.2635C173.871 35.9221 173.971 36.4822 174.171 36.9439C174.371 37.4055 174.654 37.7579 175.02 38.0011C175.386 38.2411 175.819 38.3612 176.317 38.3612C176.77 38.3612 177.156 38.2811 177.476 38.1211C177.799 37.958 178.045 37.7287 178.215 37.4332C178.387 37.1378 178.473 36.7885 178.473 36.3853L178.88 36.4453H176.442V34.9403H180.398V36.1314C180.398 36.9624 180.223 37.6764 179.872 38.2734C179.521 38.8674 179.038 39.326 178.422 39.6491C177.807 39.9692 177.102 40.1293 176.308 40.1293C175.422 40.1293 174.643 39.9338 173.972 39.543C173.301 39.149 172.778 38.5904 172.403 37.8672C172.03 37.1409 171.844 36.2791 171.844 35.282C171.844 34.5156 171.955 33.8324 172.176 33.2322C172.401 32.629 172.715 32.1181 173.118 31.6996C173.521 31.281 173.991 30.9625 174.526 30.744C175.062 30.5254 175.642 30.4162 176.267 30.4162C176.802 30.4162 177.301 30.4947 177.762 30.6516C178.224 30.8055 178.633 31.024 178.99 31.3072C179.35 31.5903 179.644 31.9273 179.872 32.3182C180.1 32.706 180.246 33.1338 180.311 33.6016H178.279ZM184.909 40V30.5455H186.908V34.4464H190.965V30.5455H192.96V40H190.965V36.0945H186.908V40H184.909ZM196.237 40H194.095L197.359 30.5455H199.935L203.195 40H201.052L198.684 32.706H198.61L196.237 40ZM196.104 36.2837H201.163V37.8441H196.104V36.2837ZM204.332 40V30.5455H208.063C208.78 30.5455 209.391 30.6824 209.895 30.9563C210.4 31.2272 210.785 31.6042 211.049 32.0874C211.317 32.5675 211.451 33.1214 211.451 33.7493C211.451 34.3771 211.316 34.9311 211.045 35.4112C210.774 35.8913 210.382 36.2653 209.868 36.533C209.357 36.8008 208.738 36.9347 208.012 36.9347H205.634V35.3327H207.689C208.073 35.3327 208.39 35.2666 208.64 35.1342C208.892 34.9988 209.08 34.8126 209.203 34.5756C209.329 34.3356 209.392 34.0601 209.392 33.7493C209.392 33.4354 209.329 33.1615 209.203 32.9276C209.08 32.6906 208.892 32.5075 208.64 32.3782C208.387 32.2459 208.067 32.1797 207.679 32.1797H206.331V40H204.332ZM212.749 40V30.5455H216.48C217.197 30.5455 217.808 30.6824 218.312 30.9563C218.817 31.2272 219.202 31.6042 219.466 32.0874C219.734 32.5675 219.868 33.1214 219.868 33.7493C219.868 34.3771 219.733 34.9311 219.462 35.4112C219.191 35.8913 218.799 36.2653 218.285 36.533C217.774 36.8008 217.155 36.9347 216.429 36.9347H214.051V35.3327H216.106C216.49 35.3327 216.807 35.2666 217.057 35.1342C217.309 34.9988 217.497 34.8126 217.62 34.5756C217.746 34.3356 217.809 34.0601 217.809 33.7493C217.809 33.4354 217.746 33.1615 217.62 32.9276C217.497 32.6906 217.309 32.5075 217.057 32.3782C216.804 32.2459 216.484 32.1797 216.096 32.1797H214.748V40H212.749ZM223.165 30.5455V40H221.166V30.5455H223.165ZM232.718 30.5455V40H230.991L226.878 34.0494H226.809V40H224.81V30.5455H226.564L230.645 36.4915H230.728V30.5455H232.718ZM234.37 40V30.5455H240.74V32.1935H236.369V34.4464H240.413V36.0945H236.369V38.3519H240.759V40H234.37ZM247.458 33.2646C247.422 32.8922 247.263 32.6029 246.983 32.3967C246.703 32.1905 246.323 32.0874 245.843 32.0874C245.516 32.0874 245.241 32.1335 245.016 32.2259C244.792 32.3151 244.619 32.4397 244.499 32.5998C244.382 32.7598 244.324 32.9414 244.324 33.1445C244.318 33.3138 244.353 33.4615 244.43 33.5877C244.51 33.7139 244.619 33.8232 244.758 33.9155C244.896 34.0047 245.056 34.0832 245.238 34.1509C245.42 34.2156 245.613 34.271 245.82 34.3171L246.669 34.5202C247.081 34.6126 247.46 34.7357 247.805 34.8896C248.149 35.0434 248.448 35.2327 248.7 35.4574C248.953 35.6821 249.148 35.9467 249.287 36.2514C249.428 36.5561 249.5 36.9054 249.504 37.2994C249.5 37.878 249.353 38.3796 249.06 38.8043C248.771 39.226 248.353 39.5537 247.805 39.7876C247.26 40.0185 246.603 40.1339 245.833 40.1339C245.07 40.1339 244.405 40.0169 243.839 39.783C243.276 39.5491 242.836 39.2029 242.519 38.7443C242.205 38.2827 242.04 37.7118 242.025 37.0316H243.959C243.981 37.3486 244.071 37.6133 244.232 37.8256C244.395 38.0349 244.612 38.1934 244.882 38.3011C245.156 38.4058 245.466 38.4581 245.81 38.4581C246.149 38.4581 246.443 38.4089 246.692 38.3104C246.944 38.2119 247.14 38.0749 247.278 37.8995C247.417 37.7241 247.486 37.5225 247.486 37.2947C247.486 37.0824 247.423 36.9039 247.297 36.7592C247.174 36.6146 246.992 36.4915 246.752 36.3899C246.515 36.2884 246.224 36.196 245.88 36.1129L244.85 35.8544C244.053 35.6605 243.424 35.3574 242.962 34.945C242.5 34.5326 242.271 33.977 242.274 33.2784C242.271 32.706 242.423 32.2058 242.731 31.7781C243.042 31.3503 243.468 31.0163 244.01 30.7763C244.552 30.5362 245.167 30.4162 245.857 30.4162C246.558 30.4162 247.171 30.5362 247.694 30.7763C248.22 31.0163 248.629 31.3503 248.922 31.7781C249.214 32.2058 249.365 32.7013 249.374 33.2646H247.458ZM255.977 33.2646C255.94 32.8922 255.782 32.6029 255.502 32.3967C255.221 32.1905 254.841 32.0874 254.361 32.0874C254.035 32.0874 253.76 32.1335 253.535 32.2259C253.31 32.3151 253.138 32.4397 253.018 32.5998C252.901 32.7598 252.842 32.9414 252.842 33.1445C252.836 33.3138 252.872 33.4615 252.949 33.5877C253.029 33.7139 253.138 33.8232 253.276 33.9155C253.415 34.0047 253.575 34.0832 253.756 34.1509C253.938 34.2156 254.132 34.271 254.338 34.3171L255.188 34.5202C255.6 34.6126 255.979 34.7357 256.323 34.8896C256.668 35.0434 256.966 35.2327 257.219 35.4574C257.471 35.6821 257.667 35.9467 257.805 36.2514C257.947 36.5561 258.019 36.9054 258.022 37.2994C258.019 37.878 257.871 38.3796 257.579 38.8043C257.29 39.226 256.871 39.5537 256.323 39.7876C255.778 40.0185 255.121 40.1339 254.352 40.1339C253.589 40.1339 252.924 40.0169 252.358 39.783C251.794 39.5491 251.354 39.2029 251.037 38.7443C250.723 38.2827 250.559 37.7118 250.543 37.0316H252.478C252.499 37.3486 252.59 37.6133 252.75 37.8256C252.913 38.0349 253.13 38.1934 253.401 38.3011C253.675 38.4058 253.984 38.4581 254.329 38.4581C254.667 38.4581 254.961 38.4089 255.211 38.3104C255.463 38.2119 255.658 38.0749 255.797 37.8995C255.935 37.7241 256.005 37.5225 256.005 37.2947C256.005 37.0824 255.942 36.9039 255.815 36.7592C255.692 36.6146 255.511 36.4915 255.271 36.3899C255.034 36.2884 254.743 36.196 254.398 36.1129L253.369 35.8544C252.572 35.6605 251.942 35.3574 251.481 34.945C251.019 34.5326 250.79 33.977 250.793 33.2784C250.79 32.706 250.942 32.2058 251.25 31.7781C251.561 31.3503 251.987 31.0163 252.528 30.7763C253.07 30.5362 253.686 30.4162 254.375 30.4162C255.077 30.4162 255.689 30.5362 256.212 30.7763C256.739 31.0163 257.148 31.3503 257.44 31.7781C257.733 32.2058 257.884 32.7013 257.893 33.2646H255.977ZM261.467 38.7074L261.416 39.2152C261.376 39.6214 261.299 40.0262 261.186 40.4293C261.075 40.8356 260.958 41.2034 260.835 41.5327C260.715 41.862 260.618 42.1205 260.544 42.3082H259.27C259.316 42.1267 259.379 41.8728 259.459 41.5465C259.539 41.2234 259.614 40.8602 259.685 40.457C259.756 40.0539 259.801 39.643 259.819 39.2244L259.842 38.7074H261.467ZM274.555 35.2727C274.555 36.3037 274.359 37.1809 273.969 37.9041C273.581 38.6274 273.051 39.1798 272.381 39.5614C271.713 39.94 270.962 40.1293 270.128 40.1293C269.287 40.1293 268.533 39.9384 267.866 39.5568C267.198 39.1752 266.67 38.6228 266.282 37.8995C265.894 37.1763 265.7 36.3007 265.7 35.2727C265.7 34.2417 265.894 33.3646 266.282 32.6413C266.67 31.9181 267.198 31.3672 267.866 30.9886C268.533 30.607 269.287 30.4162 270.128 30.4162C270.962 30.4162 271.713 30.607 272.381 30.9886C273.051 31.3672 273.581 31.9181 273.969 32.6413C274.359 33.3646 274.555 34.2417 274.555 35.2727ZM272.528 35.2727C272.528 34.6049 272.428 34.0417 272.228 33.5831C272.031 33.1245 271.753 32.7768 271.393 32.5398C271.032 32.3028 270.611 32.1843 270.128 32.1843C269.644 32.1843 269.223 32.3028 268.863 32.5398C268.503 32.7768 268.223 33.1245 268.023 33.5831C267.826 34.0417 267.727 34.6049 267.727 35.2727C267.727 35.9406 267.826 36.5038 268.023 36.9624C268.223 37.4209 268.503 37.7687 268.863 38.0057C269.223 38.2427 269.644 38.3612 270.128 38.3612C270.611 38.3612 271.032 38.2427 271.393 38.0057C271.753 37.7687 272.031 37.4209 272.228 36.9624C272.428 36.5038 272.528 35.9406 272.528 35.2727ZM283.944 30.5455V40H282.217L278.104 34.0494H278.035V40H276.036V30.5455H277.79L281.871 36.4915H281.954V30.5455H283.944ZM285.595 40V30.5455H291.966V32.1935H287.594V34.4464H291.638V36.0945H287.594V38.3519H291.984V40H285.595ZM301.693 33.2646C301.656 32.8922 301.497 32.6029 301.217 32.3967C300.937 32.1905 300.557 32.0874 300.077 32.0874C299.751 32.0874 299.475 32.1335 299.251 32.2259C299.026 32.3151 298.854 32.4397 298.734 32.5998C298.617 32.7598 298.558 32.9414 298.558 33.1445C298.552 33.3138 298.587 33.4615 298.664 33.5877C298.744 33.7139 298.854 33.8232 298.992 33.9155C299.131 34.0047 299.291 34.0832 299.472 34.1509C299.654 34.2156 299.848 34.271 300.054 34.3171L300.903 34.5202C301.316 34.6126 301.694 34.7357 302.039 34.8896C302.384 35.0434 302.682 35.2327 302.935 35.4574C303.187 35.6821 303.382 35.9467 303.521 36.2514C303.663 36.5561 303.735 36.9054 303.738 37.2994C303.735 37.878 303.587 38.3796 303.295 38.8043C303.005 39.226 302.587 39.5537 302.039 39.7876C301.494 40.0185 300.837 40.1339 300.068 40.1339C299.305 40.1339 298.64 40.0169 298.074 39.783C297.51 39.5491 297.07 39.2029 296.753 38.7443C296.439 38.2827 296.275 37.7118 296.259 37.0316H298.194C298.215 37.3486 298.306 37.6133 298.466 37.8256C298.629 38.0349 298.846 38.1934 299.117 38.3011C299.391 38.4058 299.7 38.4581 300.045 38.4581C300.383 38.4581 300.677 38.4089 300.926 38.3104C301.179 38.2119 301.374 38.0749 301.513 37.8995C301.651 37.7241 301.721 37.5225 301.721 37.2947C301.721 37.0824 301.657 36.9039 301.531 36.7592C301.408 36.6146 301.227 36.4915 300.987 36.3899C300.75 36.2884 300.459 36.196 300.114 36.1129L299.085 35.8544C298.287 35.6605 297.658 35.3574 297.196 34.945C296.735 34.5326 296.505 33.977 296.509 33.2784C296.505 32.706 296.658 32.2058 296.966 31.7781C297.276 31.3503 297.703 31.0163 298.244 30.7763C298.786 30.5362 299.402 30.4162 300.091 30.4162C300.793 30.4162 301.405 30.5362 301.928 30.7763C302.455 31.0163 302.864 31.3503 303.156 31.7781C303.449 32.2058 303.599 32.7013 303.609 33.2646H301.693ZM313.424 33.8555H311.402C311.366 33.5939 311.29 33.3615 311.176 33.1584C311.062 32.9522 310.916 32.7768 310.738 32.6321C310.559 32.4875 310.353 32.3767 310.119 32.2997C309.888 32.2228 309.637 32.1843 309.367 32.1843C308.877 32.1843 308.451 32.3059 308.088 32.549C307.725 32.7891 307.443 33.1399 307.243 33.6016C307.043 34.0601 306.943 34.6172 306.943 35.2727C306.943 35.9467 307.043 36.513 307.243 36.9716C307.446 37.4302 307.729 37.7764 308.092 38.0103C308.456 38.2442 308.876 38.3612 309.353 38.3612C309.62 38.3612 309.868 38.3258 310.096 38.255C310.327 38.1842 310.531 38.0811 310.71 37.9457C310.888 37.8072 311.036 37.6394 311.153 37.4425C311.273 37.2455 311.356 37.0208 311.402 36.7685L313.424 36.7777C313.372 37.2116 313.241 37.6302 313.032 38.0334C312.826 38.4335 312.547 38.792 312.196 39.109C311.849 39.4229 311.433 39.6722 310.95 39.8569C310.47 40.0385 309.927 40.1293 309.32 40.1293C308.477 40.1293 307.723 39.9384 307.058 39.5568C306.397 39.1752 305.873 38.6228 305.489 37.8995C305.107 37.1763 304.916 36.3007 304.916 35.2727C304.916 34.2417 305.11 33.3646 305.498 32.6413C305.886 31.9181 306.412 31.3672 307.077 30.9886C307.742 30.607 308.489 30.4162 309.32 30.4162C309.868 30.4162 310.376 30.4931 310.844 30.647C311.315 30.8009 311.732 31.0256 312.095 31.321C312.458 31.6134 312.754 31.9719 312.981 32.3967C313.212 32.8214 313.36 33.3076 313.424 33.8555ZM323.546 35.2727C323.546 36.3037 323.351 37.1809 322.96 37.9041C322.572 38.6274 322.043 39.1798 321.372 39.5614C320.704 39.94 319.953 40.1293 319.119 40.1293C318.279 40.1293 317.525 39.9384 316.857 39.5568C316.189 39.1752 315.661 38.6228 315.273 37.8995C314.886 37.1763 314.692 36.3007 314.692 35.2727C314.692 34.2417 314.886 33.3646 315.273 32.6413C315.661 31.9181 316.189 31.3672 316.857 30.9886C317.525 30.607 318.279 30.4162 319.119 30.4162C319.953 30.4162 320.704 30.607 321.372 30.9886C322.043 31.3672 322.572 31.9181 322.96 32.6413C323.351 33.3646 323.546 34.2417 323.546 35.2727ZM321.519 35.2727C321.519 34.6049 321.419 34.0417 321.219 33.5831C321.022 33.1245 320.744 32.7768 320.384 32.5398C320.024 32.3028 319.602 32.1843 319.119 32.1843C318.636 32.1843 318.214 32.3028 317.854 32.5398C317.494 32.7768 317.214 33.1245 317.014 33.5831C316.817 34.0417 316.718 34.6049 316.718 35.2727C316.718 35.9406 316.817 36.5038 317.014 36.9624C317.214 37.4209 317.494 37.7687 317.854 38.0057C318.214 38.2427 318.636 38.3612 319.119 38.3612C319.602 38.3612 320.024 38.2427 320.384 38.0057C320.744 37.7687 321.022 37.4209 321.219 36.9624C321.419 36.5038 321.519 35.9406 321.519 35.2727ZM333.715 35.2727C333.715 36.3037 333.52 37.1809 333.129 37.9041C332.741 38.6274 332.212 39.1798 331.541 39.5614C330.873 39.94 330.122 40.1293 329.288 40.1293C328.448 40.1293 327.694 39.9384 327.026 39.5568C326.358 39.1752 325.83 38.6228 325.442 37.8995C325.055 37.1763 324.861 36.3007 324.861 35.2727C324.861 34.2417 325.055 33.3646 325.442 32.6413C325.83 31.9181 326.358 31.3672 327.026 30.9886C327.694 30.607 328.448 30.4162 329.288 30.4162C330.122 30.4162 330.873 30.607 331.541 30.9886C332.212 31.3672 332.741 31.9181 333.129 32.6413C333.52 33.3646 333.715 34.2417 333.715 35.2727ZM331.688 35.2727C331.688 34.6049 331.588 34.0417 331.388 33.5831C331.191 33.1245 330.913 32.7768 330.553 32.5398C330.193 32.3028 329.771 32.1843 329.288 32.1843C328.805 32.1843 328.383 32.3028 328.023 32.5398C327.663 32.7768 327.383 33.1245 327.183 33.5831C326.986 34.0417 326.887 34.6049 326.887 35.2727C326.887 35.9406 326.986 36.5038 327.183 36.9624C327.383 37.4209 327.663 37.7687 328.023 38.0057C328.383 38.2427 328.805 38.3612 329.288 38.3612C329.771 38.3612 330.193 38.2427 330.553 38.0057C330.913 37.7687 331.191 37.4209 331.388 36.9624C331.588 36.5038 331.688 35.9406 331.688 35.2727ZM335.196 40V30.5455H338.926C339.643 30.5455 340.254 30.6824 340.759 30.9563C341.263 31.2272 341.648 31.6042 341.913 32.0874C342.18 32.5675 342.314 33.1214 342.314 33.7493C342.314 34.3771 342.179 34.9311 341.908 35.4112C341.637 35.8913 341.245 36.2653 340.731 36.533C340.22 36.8008 339.601 36.9347 338.875 36.9347H336.498V35.3327H338.552C338.937 35.3327 339.254 35.2666 339.503 35.1342C339.755 34.9988 339.943 34.8126 340.066 34.5756C340.192 34.3356 340.255 34.0601 340.255 33.7493C340.255 33.4354 340.192 33.1615 340.066 32.9276C339.943 32.6906 339.755 32.5075 339.503 32.3782C339.251 32.2459 338.93 32.1797 338.543 32.1797H337.195V40H335.196ZM348.251 40H346.109L349.373 30.5455H351.949L355.208 40H353.066L350.698 32.706H350.624L348.251 40ZM348.117 36.2837H353.177V37.8441H348.117V36.2837ZM354.831 32.1935V30.5455H362.596V32.1935H359.701V40H357.725V32.1935H354.831ZM368.513 40H366.371L369.635 30.5455H372.211L375.47 40H373.328L370.96 32.706H370.886L368.513 40ZM368.379 36.2837H373.439V37.8441H368.379V36.2837ZM379.257 32.1935V30.5455H387.021V32.1935H384.127V40H382.151V32.1935H379.257ZM390.299 30.5455V40H388.3V30.5455H390.299ZM391.944 30.5455H394.409L397.013 36.8977H397.123L399.727 30.5455H402.192V40H400.253V33.8462H400.175L397.728 39.9538H396.408L393.961 33.8232H393.883V40H391.944V30.5455ZM403.839 40V30.5455H410.21V32.1935H405.838V34.4464H409.882V36.0945H405.838V38.3519H410.229V40H403.839ZM414.112 30.5455L413.932 37.1655H412.242L412.058 30.5455H414.112ZM413.087 40.12C412.783 40.12 412.521 40.0123 412.302 39.7969C412.084 39.5784 411.976 39.3168 411.979 39.0121C411.976 38.7105 412.084 38.4519 412.302 38.2365C412.521 38.0211 412.783 37.9134 413.087 37.9134C413.38 37.9134 413.637 38.0211 413.858 38.2365C414.08 38.4519 414.192 38.7105 414.195 39.0121C414.192 39.2152 414.138 39.4014 414.034 39.5707C413.932 39.7369 413.798 39.8707 413.632 39.9723C413.466 40.0708 413.284 40.12 413.087 40.12Z" fill="#A7A9AC"/>
<g clip-path="url(#clip2_2726_145)">
<g clip-path="url(#clip3_2726_145)">
<path fill-rule="evenodd" clip-rule="evenodd" d="M45 230.5V50.5H70V230.5H45ZM67 126.5H57.5H48C48 121.944 51.8161 114.5 57.5 114.5C63.1839 114.5 67 121.944 67 126.5ZM48.0001 128.5L57.5001 160.5L67.0001 128.5H48.0001Z" fill="white"/>
<line x1="111.5" y1="230.5" x2="111.5" y2="50.5" stroke="white" stroke-width="5"/>
<line x1="155.5" y1="230.5" x2="155.5" y2="50.5" stroke="white" stroke-width="5"/>
<path fill-rule="evenodd" clip-rule="evenodd" d="M202 230.5V50.5H227V230.5H202ZM224 126.5H214.5H205C205 121.944 208.816 114.5 214.5 114.5C220.184 114.5 224 121.944 224 126.5ZM205 128.5L214.5 160.5L224 128.5H205Z" fill="white"/>
<line x1="268.5" y1="230.5" x2="268.5" y2="50.5" stroke="white" stroke-width="5"/>
<line x1="312.5" y1="230.5" x2="312.5" y2="50.5" stroke="white" stroke-width="5"/>
<path fill-rule="evenodd" clip-rule="evenodd" d="M359 230.5V50.5H384V230.5H359ZM381 126.5H371.5H362C362 121.944 365.816 114.5 371.5 114.5C377.184 114.5 381 121.944 381 126.5ZM362 128.5L371.5 160.5L381 128.5H362Z" fill="white"/>
<line x1="425.5" y1="230.5" x2="425.5" y2="50.5" stroke="white" stroke-width="5"/>
</g>
<rect x="2" y="52.5" width="1436" height="16" stroke="white" stroke-width="4"/>
</g>
<defs>
<clipPath id="clip0_2726_145">
<rect width="430" height="20" fill="white"/>
</clipPath>
<clipPath id="clip1_2726_145">
<rect y="0.5" width="1440" height="20" fill="white"/>
</clipPath>
<clipPath id="clip2_2726_145">
<rect width="430" height="20" fill="white" transform="translate(0 50)"/>
</clipPath>
<clipPath id="clip3_2726_145">
<rect y="50.5" width="1440" height="20" fill="white"/>
</clipPath>
</defs>
</svg>
