<svg width="1440" height="114" viewBox="0 0 1440 114" fill="none" xmlns="http://www.w3.org/2000/svg">
<rect width="1440" height="114" fill="#E4EBF3" fill-opacity="0.87"/>
<g clip-path="url(#clip0_2276_10)">
<g clip-path="url(#clip1_2276_10)">
<path fill-rule="evenodd" clip-rule="evenodd" d="M45 180V0H70V180H45ZM67 76H57.5H48C48 71.4436 51.8161 64 57.5 64C63.1839 64 67 71.4436 67 76ZM48.0001 78L57.5001 110L67.0001 78H48.0001Z" fill="white"/>
<line x1="111.5" y1="180" x2="111.5" stroke="white" stroke-width="5"/>
<line x1="155.5" y1="180" x2="155.5" stroke="white" stroke-width="5"/>
<path fill-rule="evenodd" clip-rule="evenodd" d="M202 180V0H227V180H202ZM224 76H214.5H205C205 71.4436 208.816 64 214.5 64C220.184 64 224 71.4436 224 76ZM205 78L214.5 110L224 78H205Z" fill="white"/>
<line x1="268.5" y1="180" x2="268.5" stroke="white" stroke-width="5"/>
<line x1="312.5" y1="180" x2="312.5" stroke="white" stroke-width="5"/>
<path fill-rule="evenodd" clip-rule="evenodd" d="M359 180V0H384V180H359ZM381 76H371.5H362C362 71.4436 365.816 64 371.5 64C377.184 64 381 71.4436 381 76ZM362 78L371.5 110L381 78H362Z" fill="white"/>
<line x1="425.5" y1="180" x2="425.5" stroke="white" stroke-width="5"/>
<line x1="469.5" y1="180" x2="469.5" stroke="white" stroke-width="5"/>
<path fill-rule="evenodd" clip-rule="evenodd" d="M516 180V0H541V180H516ZM538 76H528.5H519C519 71.4436 522.816 64 528.5 64C534.184 64 538 71.4436 538 76ZM519 78L528.5 110L538 78H519Z" fill="white"/>
<line x1="582.5" y1="180" x2="582.5" stroke="white" stroke-width="5"/>
<line x1="626.5" y1="180" x2="626.5" stroke="white" stroke-width="5"/>
<path fill-rule="evenodd" clip-rule="evenodd" d="M673 180V0H698V180H673ZM695 76H685.5H676C676 71.4436 679.816 64 685.5 64C691.184 64 695 71.4436 695 76ZM676 78L685.5 110L695 78H676Z" fill="white"/>
<path fill-rule="evenodd" clip-rule="evenodd" d="M742 180V0H767V180H742ZM764 76H754.5H745C745 71.4436 748.816 64 754.5 64C760.184 64 764 71.4436 764 76ZM745 78L754.5 110L764 78H745Z" fill="white"/>
<line x1="808.5" y1="180" x2="808.5" stroke="white" stroke-width="5"/>
<line x1="852.5" y1="180" x2="852.5" stroke="white" stroke-width="5"/>
<path fill-rule="evenodd" clip-rule="evenodd" d="M899 180V0H924V180H899ZM921 76H911.5H902C902 71.4436 905.816 64 911.5 64C917.184 64 921 71.4436 921 76ZM902 78L911.5 110L921 78H902Z" fill="white"/>
<line x1="965.5" y1="180" x2="965.5" stroke="white" stroke-width="5"/>
<line x1="1009.5" y1="180" x2="1009.5" stroke="white" stroke-width="5"/>
<path fill-rule="evenodd" clip-rule="evenodd" d="M1056 180V0H1081V180H1056ZM1078 76H1068.5H1059C1059 71.4436 1062.82 64 1068.5 64C1074.18 64 1078 71.4436 1078 76ZM1059 78L1068.5 110L1078 78H1059Z" fill="white"/>
<line x1="1122.5" y1="180" x2="1122.5" stroke="white" stroke-width="5"/>
<line x1="1166.5" y1="180" x2="1166.5" stroke="white" stroke-width="5"/>
<path fill-rule="evenodd" clip-rule="evenodd" d="M1213 180V0H1238V180H1213ZM1235 76H1225.5H1216C1216 71.4436 1219.82 64 1225.5 64C1231.18 64 1235 71.4436 1235 76ZM1216 78L1225.5 110L1235 78H1216Z" fill="white"/>
<line x1="1279.5" y1="180" x2="1279.5" stroke="white" stroke-width="5"/>
<line x1="1323.5" y1="180" x2="1323.5" stroke="white" stroke-width="5"/>
<path fill-rule="evenodd" clip-rule="evenodd" d="M1370 180V0H1395V180H1370ZM1392 76H1382.5H1373C1373 71.4436 1376.82 64 1382.5 64C1388.18 64 1392 71.4436 1392 76ZM1373 78L1382.5 110L1392 78H1373Z" fill="white"/>
</g>
<rect x="2" y="2" width="1436" height="24" stroke="white" stroke-width="4"/>
</g>
<path d="M103.949 56.7273C103.949 60.0582 103.318 62.892 102.055 65.2287C100.802 67.5653 99.0918 69.3501 96.9242 70.5831C94.7665 71.8061 92.3404 72.4176 89.6458 72.4176C86.9313 72.4176 84.4952 71.8011 82.3375 70.5682C80.1799 69.3352 78.4746 67.5504 77.2218 65.2138C75.9689 62.8771 75.3425 60.0483 75.3425 56.7273C75.3425 53.3963 75.9689 50.5625 77.2218 48.2259C78.4746 45.8892 80.1799 44.1094 82.3375 42.8864C84.4952 41.6534 86.9313 41.0369 89.6458 41.0369C92.3404 41.0369 94.7665 41.6534 96.9242 42.8864C99.0918 44.1094 100.802 45.8892 102.055 48.2259C103.318 50.5625 103.949 53.3963 103.949 56.7273ZM97.4015 56.7273C97.4015 54.5696 97.0783 52.75 96.432 51.2685C95.7956 49.7869 94.8958 48.6634 93.7324 47.8977C92.5691 47.1321 91.2069 46.7493 89.6458 46.7493C88.0847 46.7493 86.7225 47.1321 85.5591 47.8977C84.3958 48.6634 83.4909 49.7869 82.8446 51.2685C82.2083 52.75 81.8901 54.5696 81.8901 56.7273C81.8901 58.8849 82.2083 60.7045 82.8446 62.1861C83.4909 63.6676 84.3958 64.7912 85.5591 65.5568C86.7225 66.3224 88.0847 66.7053 89.6458 66.7053C91.2069 66.7053 92.5691 66.3224 93.7324 65.5568C94.8958 64.7912 95.7956 63.6676 96.432 62.1861C97.0783 60.7045 97.4015 58.8849 97.4015 56.7273ZM127.6 41.4545H134.058V61.2912C134.058 63.5185 133.526 65.4673 132.462 67.1378C131.408 68.8082 129.932 70.1108 128.033 71.0455C126.134 71.9702 123.921 72.4325 121.396 72.4325C118.86 72.4325 116.643 71.9702 114.744 71.0455C112.844 70.1108 111.368 68.8082 110.314 67.1378C109.26 65.4673 108.733 63.5185 108.733 61.2912V41.4545H115.191V60.7393C115.191 61.9027 115.445 62.9368 115.952 63.8416C116.469 64.7464 117.195 65.4574 118.129 65.9744C119.064 66.4915 120.153 66.75 121.396 66.75C122.648 66.75 123.737 66.4915 124.662 65.9744C125.597 65.4574 126.317 64.7464 126.825 63.8416C127.342 62.9368 127.6 61.9027 127.6 60.7393V41.4545ZM139.372 72V41.4545H151.423C153.73 41.4545 155.698 41.8672 157.329 42.6925C158.97 43.5078 160.218 44.6662 161.073 46.1676C161.938 47.6591 162.37 49.4141 162.37 51.4325C162.37 53.4609 161.933 55.206 161.058 56.6676C160.183 58.1193 158.915 59.233 157.254 60.0085C155.604 60.7841 153.605 61.1719 151.259 61.1719H143.19V55.9815H150.215C151.448 55.9815 152.472 55.8125 153.287 55.4744C154.102 55.1364 154.709 54.6293 155.107 53.9531C155.514 53.277 155.718 52.4368 155.718 51.4325C155.718 50.4183 155.514 49.5632 155.107 48.8672C154.709 48.1712 154.097 47.6442 153.272 47.2862C152.457 46.9183 151.428 46.7344 150.185 46.7344H145.83V72H139.372ZM155.867 58.0994L163.459 72H156.33L148.902 58.0994H155.867ZM176.655 41.4545H184.619L193.031 61.9773H193.389L201.801 41.4545H209.766V72H203.501V52.1186H203.248L195.343 71.8509H191.077L183.173 52.044H182.919V72H176.655V41.4545ZM221.545 41.4545V72H215.086V41.4545H221.545ZM243.428 50.2393C243.309 49.0362 242.797 48.1016 241.892 47.4354C240.987 46.7692 239.759 46.4361 238.208 46.4361C237.154 46.4361 236.264 46.5852 235.538 46.8835C234.813 47.1719 234.256 47.5746 233.868 48.0916C233.49 48.6087 233.301 49.1953 233.301 49.8516C233.281 50.3984 233.396 50.8757 233.644 51.2834C233.903 51.6911 234.256 52.044 234.703 52.3423C235.151 52.6307 235.668 52.8842 236.254 53.103C236.841 53.3118 237.467 53.4908 238.134 53.6399L240.878 54.2962C242.21 54.5945 243.433 54.9922 244.547 55.4893C245.661 55.9865 246.625 56.598 247.44 57.3239C248.256 58.0497 248.887 58.9048 249.335 59.8892C249.792 60.8736 250.026 62.0021 250.036 63.2749C250.026 65.1442 249.548 66.7649 248.604 68.1371C247.669 69.4993 246.317 70.5582 244.547 71.3139C242.787 72.0597 240.664 72.4325 238.178 72.4325C235.712 72.4325 233.565 72.0547 231.735 71.299C229.915 70.5433 228.494 69.4247 227.469 67.9432C226.455 66.4517 225.923 64.6072 225.874 62.4098H232.123C232.192 63.4339 232.486 64.2891 233.003 64.9751C233.53 65.6513 234.231 66.1634 235.106 66.5114C235.991 66.8494 236.99 67.0185 238.104 67.0185C239.197 67.0185 240.147 66.8594 240.952 66.5412C241.768 66.223 242.399 65.7805 242.847 65.2138C243.294 64.647 243.518 63.9957 243.518 63.2599C243.518 62.5739 243.314 61.9972 242.906 61.5298C242.509 61.0625 241.922 60.6648 241.146 60.3366C240.381 60.0085 239.441 59.7102 238.327 59.4418L235.001 58.6065C232.426 57.9801 230.393 57.0007 228.901 55.6683C227.41 54.3359 226.669 52.5412 226.679 50.2841C226.669 48.4347 227.161 46.8189 228.156 45.4368C229.16 44.0547 230.537 42.9759 232.287 42.2003C234.037 41.4247 236.026 41.0369 238.253 41.0369C240.52 41.0369 242.499 41.4247 244.189 42.2003C245.889 42.9759 247.212 44.0547 248.156 45.4368C249.101 46.8189 249.588 48.4197 249.618 50.2393H243.428ZM270.95 50.2393C270.83 49.0362 270.318 48.1016 269.414 47.4354C268.509 46.7692 267.281 46.4361 265.73 46.4361C264.676 46.4361 263.786 46.5852 263.06 46.8835C262.334 47.1719 261.777 47.5746 261.389 48.0916C261.012 48.6087 260.823 49.1953 260.823 49.8516C260.803 50.3984 260.917 50.8757 261.166 51.2834C261.424 51.6911 261.777 52.044 262.225 52.3423C262.672 52.6307 263.189 52.8842 263.776 53.103C264.362 53.3118 264.989 53.4908 265.655 53.6399L268.399 54.2962C269.732 54.5945 270.955 54.9922 272.068 55.4893C273.182 55.9865 274.146 56.598 274.962 57.3239C275.777 58.0497 276.409 58.9048 276.856 59.8892C277.313 60.8736 277.547 62.0021 277.557 63.2749C277.547 65.1442 277.07 66.7649 276.125 68.1371C275.191 69.4993 273.838 70.5582 272.068 71.3139C270.308 72.0597 268.186 72.4325 265.7 72.4325C263.234 72.4325 261.086 72.0547 259.257 71.299C257.437 70.5433 256.015 69.4247 254.991 67.9432C253.977 66.4517 253.445 64.6072 253.395 62.4098H259.644C259.714 63.4339 260.007 64.2891 260.524 64.9751C261.051 65.6513 261.752 66.1634 262.627 66.5114C263.512 66.8494 264.512 67.0185 265.625 67.0185C266.719 67.0185 267.669 66.8594 268.474 66.5412C269.289 66.223 269.921 65.7805 270.368 65.2138C270.816 64.647 271.039 63.9957 271.039 63.2599C271.039 62.5739 270.835 61.9972 270.428 61.5298C270.03 61.0625 269.443 60.6648 268.668 60.3366C267.902 60.0085 266.963 59.7102 265.849 59.4418L262.523 58.6065C259.948 57.9801 257.914 57.0007 256.423 55.6683C254.931 54.3359 254.191 52.5412 254.2 50.2841C254.191 48.4347 254.683 46.8189 255.677 45.4368C256.681 44.0547 258.058 42.9759 259.808 42.2003C261.558 41.4247 263.547 41.0369 265.774 41.0369C268.041 41.0369 270.02 41.4247 271.71 42.2003C273.411 42.9759 274.733 44.0547 275.678 45.4368C276.622 46.8189 277.11 48.4197 277.139 50.2393H270.95ZM288.359 41.4545V72H281.901V41.4545H288.359ZM321.742 56.7273C321.742 60.0582 321.111 62.892 319.848 65.2287C318.595 67.5653 316.885 69.3501 314.717 70.5831C312.559 71.8061 310.133 72.4176 307.439 72.4176C304.724 72.4176 302.288 71.8011 300.131 70.5682C297.973 69.3352 296.268 67.5504 295.015 65.2138C293.762 62.8771 293.135 60.0483 293.135 56.7273C293.135 53.3963 293.762 50.5625 295.015 48.2259C296.268 45.8892 297.973 44.1094 300.131 42.8864C302.288 41.6534 304.724 41.0369 307.439 41.0369C310.133 41.0369 312.559 41.6534 314.717 42.8864C316.885 44.1094 318.595 45.8892 319.848 48.2259C321.111 50.5625 321.742 53.3963 321.742 56.7273ZM315.194 56.7273C315.194 54.5696 314.871 52.75 314.225 51.2685C313.589 49.7869 312.689 48.6634 311.525 47.8977C310.362 47.1321 309 46.7493 307.439 46.7493C305.878 46.7493 304.515 47.1321 303.352 47.8977C302.189 48.6634 301.284 49.7869 300.638 51.2685C300.001 52.75 299.683 54.5696 299.683 56.7273C299.683 58.8849 300.001 60.7045 300.638 62.1861C301.284 63.6676 302.189 64.7912 303.352 65.5568C304.515 66.3224 305.878 66.7053 307.439 66.7053C309 66.7053 310.362 66.3224 311.525 65.5568C312.689 64.7912 313.589 63.6676 314.225 62.1861C314.871 60.7045 315.194 58.8849 315.194 56.7273ZM352.075 41.4545V72H346.497L333.208 52.7749H332.984V72H326.526V41.4545H332.194L345.378 60.6648H345.647V41.4545H352.075ZM385.477 54.2067V59.2479H364.477V54.2067H385.477ZM424.803 52.1484H418.27C418.151 51.3033 417.907 50.5526 417.54 49.8963C417.172 49.2301 416.699 48.6634 416.123 48.196C415.546 47.7287 414.88 47.3707 414.124 47.1222C413.378 46.8736 412.568 46.7493 411.693 46.7493C410.112 46.7493 408.735 47.142 407.562 47.9276C406.388 48.7031 405.479 49.8366 404.832 51.3281C404.186 52.8097 403.863 54.6094 403.863 56.7273C403.863 58.9048 404.186 60.7344 404.832 62.2159C405.488 63.6974 406.403 64.8161 407.577 65.5717C408.75 66.3274 410.107 66.7053 411.648 66.7053C412.513 66.7053 413.314 66.5909 414.05 66.3622C414.795 66.1335 415.456 65.8004 416.033 65.3629C416.61 64.9155 417.087 64.3736 417.465 63.7372C417.853 63.1009 418.121 62.375 418.27 61.5597L424.803 61.5895C424.634 62.9915 424.211 64.3438 423.535 65.6463C422.869 66.9389 421.969 68.0973 420.836 69.1214C419.712 70.1357 418.37 70.9411 416.809 71.5376C415.258 72.1243 413.503 72.4176 411.544 72.4176C408.819 72.4176 406.383 71.8011 404.236 70.5682C402.098 69.3352 400.407 67.5504 399.165 65.2138C397.932 62.8771 397.315 60.0483 397.315 56.7273C397.315 53.3963 397.942 50.5625 399.194 48.2259C400.447 45.8892 402.148 44.1094 404.295 42.8864C406.443 41.6534 408.859 41.0369 411.544 41.0369C413.314 41.0369 414.954 41.2855 416.466 41.7827C417.987 42.2798 419.334 43.0057 420.508 43.9602C421.681 44.9048 422.635 46.0632 423.371 47.4354C424.117 48.8075 424.594 50.3786 424.803 52.1484ZM429.434 72V41.4545H441.485C443.792 41.4545 445.761 41.8672 447.392 42.6925C449.032 43.5078 450.28 44.6662 451.135 46.1676C452 47.6591 452.433 49.4141 452.433 51.4325C452.433 53.4609 451.995 55.206 451.12 56.6676C450.245 58.1193 448.977 59.233 447.317 60.0085C445.666 60.7841 443.668 61.1719 441.321 61.1719H433.252V55.9815H440.277C441.51 55.9815 442.534 55.8125 443.35 55.4744C444.165 55.1364 444.771 54.6293 445.169 53.9531C445.577 53.277 445.781 52.4368 445.781 51.4325C445.781 50.4183 445.577 49.5632 445.169 48.8672C444.771 48.1712 444.16 47.6442 443.335 47.2862C442.519 46.9183 441.49 46.7344 440.247 46.7344H435.892V72H429.434ZM445.93 58.0994L453.521 72H446.392L438.965 58.0994H445.93ZM456.997 72V41.4545H477.579V46.7791H463.455V54.0575H476.52V59.3821H463.455V66.6754H477.639V72H456.997ZM487.978 72H481.058L491.603 41.4545H499.925L510.455 72H503.534L495.883 48.4347H495.645L487.978 72ZM487.546 59.9936H503.892V65.0348H487.546V59.9936ZM509.236 46.7791V41.4545H534.322V46.7791H524.971V72H518.587V46.7791H509.236ZM544.912 41.4545V72H538.454V41.4545H544.912ZM575.774 41.4545V72H570.196L556.907 52.7749H556.683V72H550.225V41.4545H555.893L569.077 60.6648H569.346V41.4545H575.774ZM601.364 51.3281C601.155 50.6023 600.862 49.9609 600.484 49.4041C600.106 48.8374 599.644 48.3601 599.097 47.9723C598.56 47.5746 597.944 47.2713 597.248 47.0625C596.562 46.8537 595.801 46.7493 594.966 46.7493C593.405 46.7493 592.032 47.1371 590.849 47.9126C589.676 48.6882 588.761 49.8168 588.105 51.2983C587.449 52.7699 587.121 54.5696 587.121 56.6974C587.121 58.8253 587.444 60.6349 588.09 62.1264C588.736 63.6179 589.651 64.7564 590.834 65.5419C592.018 66.3175 593.415 66.7053 595.025 66.7053C596.487 66.7053 597.735 66.4467 598.769 65.9297C599.813 65.4027 600.608 64.6619 601.155 63.7074C601.712 62.7528 601.991 61.6243 601.991 60.3217L603.303 60.5156H595.428V55.6534H608.21V59.5014C608.21 62.1861 607.643 64.4929 606.51 66.4219C605.376 68.3409 603.815 69.8224 601.827 70.8665C599.838 71.9006 597.561 72.4176 594.996 72.4176C592.132 72.4176 589.616 71.7862 587.449 70.5234C585.281 69.2507 583.591 67.446 582.378 65.1094C581.175 62.7628 580.573 59.9787 580.573 56.7571C580.573 54.2812 580.931 52.0739 581.647 50.1349C582.373 48.1861 583.387 46.5355 584.689 45.1832C585.992 43.831 587.508 42.8018 589.238 42.0959C590.969 41.3899 592.843 41.0369 594.861 41.0369C596.591 41.0369 598.202 41.2905 599.694 41.7976C601.185 42.2947 602.508 43.0007 603.661 43.9155C604.824 44.8303 605.774 45.919 606.51 47.1818C607.246 48.4347 607.718 49.8168 607.927 51.3281H601.364ZM622.782 72V41.4545H629.24V54.0575H642.35V41.4545H648.793V72H642.35V59.3821H629.24V72H622.782ZM659.383 72H652.462L663.007 41.4545H671.329L681.859 72H674.939L667.287 48.4347H667.049L659.383 72ZM658.95 59.9936H675.297V65.0348H658.95V59.9936ZM685.536 72V41.4545H697.587C699.904 41.4545 701.877 41.897 703.508 42.782C705.139 43.657 706.382 44.875 707.237 46.4361C708.102 47.9872 708.534 49.777 708.534 51.8054C708.534 53.8338 708.097 55.6236 707.222 57.1747C706.347 58.7259 705.079 59.9339 703.419 60.799C701.768 61.6641 699.769 62.0966 697.423 62.0966H689.742V56.9212H696.379C697.622 56.9212 698.646 56.7074 699.451 56.2798C700.267 55.8423 700.873 55.2408 701.271 54.4751C701.678 53.6996 701.882 52.8097 701.882 51.8054C701.882 50.7912 701.678 49.9062 701.271 49.1506C700.873 48.3849 700.267 47.7933 699.451 47.3757C698.636 46.9482 697.602 46.7344 696.349 46.7344H691.994V72H685.536ZM712.729 72V41.4545H724.78C727.097 41.4545 729.071 41.897 730.701 42.782C732.332 43.657 733.575 44.875 734.43 46.4361C735.295 47.9872 735.728 49.777 735.728 51.8054C735.728 53.8338 735.29 55.6236 734.415 57.1747C733.54 58.7259 732.272 59.9339 730.612 60.799C728.961 61.6641 726.963 62.0966 724.616 62.0966H716.935V56.9212H723.572C724.815 56.9212 725.839 56.7074 726.645 56.2798C727.46 55.8423 728.066 55.2408 728.464 54.4751C728.872 53.6996 729.076 52.8097 729.076 51.8054C729.076 50.7912 728.872 49.9062 728.464 49.1506C728.066 48.3849 727.46 47.7933 726.645 47.3757C725.829 46.9482 724.795 46.7344 723.542 46.7344H719.187V72H712.729ZM746.381 41.4545V72H739.922V41.4545H746.381ZM777.243 41.4545V72H771.665L758.376 52.7749H758.152V72H751.694V41.4545H757.362L770.546 60.6648H770.815V41.4545H777.243ZM782.579 72V41.4545H803.161V46.7791H789.037V54.0575H802.102V59.3821H789.037V66.6754H803.221V72H782.579ZM824.866 50.2393C824.746 49.0362 824.234 48.1016 823.33 47.4354C822.425 46.7692 821.197 46.4361 819.646 46.4361C818.592 46.4361 817.702 46.5852 816.976 46.8835C816.25 47.1719 815.693 47.5746 815.305 48.0916C814.928 48.6087 814.739 49.1953 814.739 49.8516C814.719 50.3984 814.833 50.8757 815.082 51.2834C815.34 51.6911 815.693 52.044 816.141 52.3423C816.588 52.6307 817.105 52.8842 817.692 53.103C818.278 53.3118 818.905 53.4908 819.571 53.6399L822.315 54.2962C823.648 54.5945 824.871 54.9922 825.984 55.4893C827.098 55.9865 828.063 56.598 828.878 57.3239C829.693 58.0497 830.325 58.9048 830.772 59.8892C831.229 60.8736 831.463 62.0021 831.473 63.2749C831.463 65.1442 830.986 66.7649 830.041 68.1371C829.107 69.4993 827.754 70.5582 825.984 71.3139C824.224 72.0597 822.102 72.4325 819.616 72.4325C817.15 72.4325 815.002 72.0547 813.173 71.299C811.353 70.5433 809.931 69.4247 808.907 67.9432C807.893 66.4517 807.361 64.6072 807.311 62.4098H813.56C813.63 63.4339 813.923 64.2891 814.44 64.9751C814.967 65.6513 815.668 66.1634 816.543 66.5114C817.428 66.8494 818.428 67.0185 819.541 67.0185C820.635 67.0185 821.585 66.8594 822.39 66.5412C823.205 66.223 823.837 65.7805 824.284 65.2138C824.732 64.647 824.955 63.9957 824.955 63.2599C824.955 62.5739 824.751 61.9972 824.344 61.5298C823.946 61.0625 823.359 60.6648 822.584 60.3366C821.818 60.0085 820.879 59.7102 819.765 59.4418L816.439 58.6065C813.864 57.9801 811.83 57.0007 810.339 55.6683C808.847 54.3359 808.107 52.5412 808.116 50.2841C808.107 48.4347 808.599 46.8189 809.593 45.4368C810.597 44.0547 811.974 42.9759 813.724 42.2003C815.474 41.4247 817.463 41.0369 819.69 41.0369C821.957 41.0369 823.936 41.4247 825.626 42.2003C827.327 42.9759 828.649 44.0547 829.594 45.4368C830.538 46.8189 831.026 48.4197 831.055 50.2393H824.866ZM852.387 50.2393C852.268 49.0362 851.756 48.1016 850.851 47.4354C849.946 46.7692 848.718 46.4361 847.167 46.4361C846.113 46.4361 845.223 46.5852 844.497 46.8835C843.771 47.1719 843.215 47.5746 842.827 48.0916C842.449 48.6087 842.26 49.1953 842.26 49.8516C842.24 50.3984 842.355 50.8757 842.603 51.2834C842.862 51.6911 843.215 52.044 843.662 52.3423C844.11 52.6307 844.627 52.8842 845.213 53.103C845.8 53.3118 846.426 53.4908 847.093 53.6399L849.837 54.2962C851.169 54.5945 852.392 54.9922 853.506 55.4893C854.619 55.9865 855.584 56.598 856.399 57.3239C857.215 58.0497 857.846 58.9048 858.294 59.8892C858.751 60.8736 858.985 62.0021 858.994 63.2749C858.985 65.1442 858.507 66.7649 857.563 68.1371C856.628 69.4993 855.276 70.5582 853.506 71.3139C851.746 72.0597 849.623 72.4325 847.137 72.4325C844.671 72.4325 842.524 72.0547 840.694 71.299C838.874 70.5433 837.453 69.4247 836.428 67.9432C835.414 66.4517 834.882 64.6072 834.833 62.4098H841.082C841.151 63.4339 841.445 64.2891 841.962 64.9751C842.489 65.6513 843.19 66.1634 844.065 66.5114C844.95 66.8494 845.949 67.0185 847.063 67.0185C848.156 67.0185 849.106 66.8594 849.911 66.5412C850.727 66.223 851.358 65.7805 851.806 65.2138C852.253 64.647 852.477 63.9957 852.477 63.2599C852.477 62.5739 852.273 61.9972 851.865 61.5298C851.468 61.0625 850.881 60.6648 850.105 60.3366C849.34 60.0085 848.4 59.7102 847.286 59.4418L843.96 58.6065C841.385 57.9801 839.352 57.0007 837.86 55.6683C836.369 54.3359 835.628 52.5412 835.638 50.2841C835.628 48.4347 836.12 46.8189 837.115 45.4368C838.119 44.0547 839.496 42.9759 841.246 42.2003C842.996 41.4247 844.985 41.0369 847.212 41.0369C849.479 41.0369 851.458 41.4247 853.148 42.2003C854.848 42.9759 856.171 44.0547 857.115 45.4368C858.06 46.8189 858.547 48.4197 858.577 50.2393H852.387ZM870.125 67.8239L869.961 69.4645C869.831 70.777 869.583 72.0845 869.215 73.3871C868.857 74.6996 868.479 75.8878 868.081 76.9517C867.694 78.0156 867.38 78.8509 867.142 79.4574H863.025C863.174 78.8707 863.378 78.0504 863.637 76.9964C863.895 75.9524 864.139 74.7791 864.368 73.4766C864.596 72.174 864.74 70.8466 864.8 69.4943L864.875 67.8239H870.125ZM912.408 56.7273C912.408 60.0582 911.777 62.892 910.514 65.2287C909.261 67.5653 907.551 69.3501 905.383 70.5831C903.225 71.8061 900.799 72.4176 898.105 72.4176C895.39 72.4176 892.954 71.8011 890.797 70.5682C888.639 69.3352 886.934 67.5504 885.681 65.2138C884.428 62.8771 883.801 60.0483 883.801 56.7273C883.801 53.3963 884.428 50.5625 885.681 48.2259C886.934 45.8892 888.639 44.1094 890.797 42.8864C892.954 41.6534 895.39 41.0369 898.105 41.0369C900.799 41.0369 903.225 41.6534 905.383 42.8864C907.551 44.1094 909.261 45.8892 910.514 48.2259C911.777 50.5625 912.408 53.3963 912.408 56.7273ZM905.86 56.7273C905.86 54.5696 905.537 52.75 904.891 51.2685C904.255 49.7869 903.355 48.6634 902.191 47.8977C901.028 47.1321 899.666 46.7493 898.105 46.7493C896.544 46.7493 895.181 47.1321 894.018 47.8977C892.855 48.6634 891.95 49.7869 891.304 51.2685C890.667 52.75 890.349 54.5696 890.349 56.7273C890.349 58.8849 890.667 60.7045 891.304 62.1861C891.95 63.6676 892.855 64.7912 894.018 65.5568C895.181 66.3224 896.544 66.7053 898.105 66.7053C899.666 66.7053 901.028 66.3224 902.191 65.5568C903.355 64.7912 904.255 63.6676 904.891 62.1861C905.537 60.7045 905.86 58.8849 905.86 56.7273ZM942.741 41.4545V72H937.163L923.874 52.7749H923.65V72H917.192V41.4545H922.86L936.044 60.6648H936.313V41.4545H942.741ZM948.077 72V41.4545H968.659V46.7791H954.535V54.0575H967.6V59.3821H954.535V66.6754H968.719V72H948.077ZM1000.08 50.2393C999.965 49.0362 999.453 48.1016 998.548 47.4354C997.643 46.7692 996.415 46.4361 994.864 46.4361C993.81 46.4361 992.92 46.5852 992.195 46.8835C991.469 47.1719 990.912 47.5746 990.524 48.0916C990.146 48.6087 989.957 49.1953 989.957 49.8516C989.938 50.3984 990.052 50.8757 990.3 51.2834C990.559 51.6911 990.912 52.044 991.359 52.3423C991.807 52.6307 992.324 52.8842 992.911 53.103C993.497 53.3118 994.124 53.4908 994.79 53.6399L997.534 54.2962C998.866 54.5945 1000.09 54.9922 1001.2 55.4893C1002.32 55.9865 1003.28 56.598 1004.1 57.3239C1004.91 58.0497 1005.54 58.9048 1005.99 59.8892C1006.45 60.8736 1006.68 62.0021 1006.69 63.2749C1006.68 65.1442 1006.2 66.7649 1005.26 68.1371C1004.33 69.4993 1002.97 70.5582 1001.2 71.3139C999.443 72.0597 997.32 72.4325 994.835 72.4325C992.369 72.4325 990.221 72.0547 988.391 71.299C986.572 70.5433 985.15 69.4247 984.126 67.9432C983.112 66.4517 982.58 64.6072 982.53 62.4098H988.779C988.849 63.4339 989.142 64.2891 989.659 64.9751C990.186 65.6513 990.887 66.1634 991.762 66.5114C992.647 66.8494 993.646 67.0185 994.76 67.0185C995.854 67.0185 996.803 66.8594 997.609 66.5412C998.424 66.223 999.055 65.7805 999.503 65.2138C999.95 64.647 1000.17 63.9957 1000.17 63.2599C1000.17 62.5739 999.97 61.9972 999.562 61.5298C999.165 61.0625 998.578 60.6648 997.803 60.3366C997.037 60.0085 996.097 59.7102 994.984 59.4418L991.658 58.6065C989.082 57.9801 987.049 57.0007 985.558 55.6683C984.066 54.3359 983.325 52.5412 983.335 50.2841C983.325 48.4347 983.817 46.8189 984.812 45.4368C985.816 44.0547 987.193 42.9759 988.943 42.2003C990.693 41.4247 992.682 41.0369 994.909 41.0369C997.176 41.0369 999.155 41.4247 1000.85 42.2003C1002.55 42.9759 1003.87 44.0547 1004.81 45.4368C1005.76 46.8189 1006.24 48.4197 1006.27 50.2393H1000.08ZM1037.99 52.1484H1031.45C1031.33 51.3033 1031.09 50.5526 1030.72 49.8963C1030.36 49.2301 1029.88 48.6634 1029.31 48.196C1028.73 47.7287 1028.06 47.3707 1027.31 47.1222C1026.56 46.8736 1025.75 46.7493 1024.88 46.7493C1023.3 46.7493 1021.92 47.142 1020.75 47.9276C1019.57 48.7031 1018.66 49.8366 1018.02 51.3281C1017.37 52.8097 1017.05 54.6094 1017.05 56.7273C1017.05 58.9048 1017.37 60.7344 1018.02 62.2159C1018.67 63.6974 1019.59 64.8161 1020.76 65.5717C1021.93 66.3274 1023.29 66.7053 1024.83 66.7053C1025.7 66.7053 1026.5 66.5909 1027.23 66.3622C1027.98 66.1335 1028.64 65.8004 1029.22 65.3629C1029.79 64.9155 1030.27 64.3736 1030.65 63.7372C1031.04 63.1009 1031.3 62.375 1031.45 61.5597L1037.99 61.5895C1037.82 62.9915 1037.4 64.3438 1036.72 65.6463C1036.05 66.9389 1035.15 68.0973 1034.02 69.1214C1032.9 70.1357 1031.55 70.9411 1029.99 71.5376C1028.44 72.1243 1026.69 72.4176 1024.73 72.4176C1022 72.4176 1019.57 71.8011 1017.42 70.5682C1015.28 69.3352 1013.59 67.5504 1012.35 65.2138C1011.12 62.8771 1010.5 60.0483 1010.5 56.7273C1010.5 53.3963 1011.13 50.5625 1012.38 48.2259C1013.63 45.8892 1015.33 44.1094 1017.48 42.8864C1019.63 41.6534 1022.04 41.0369 1024.73 41.0369C1026.5 41.0369 1028.14 41.2855 1029.65 41.7827C1031.17 42.2798 1032.52 43.0057 1033.69 43.9602C1034.86 44.9048 1035.82 46.0632 1036.55 47.4354C1037.3 48.8075 1037.78 50.3786 1037.99 52.1484ZM1070.69 56.7273C1070.69 60.0582 1070.06 62.892 1068.79 65.2287C1067.54 67.5653 1065.83 69.3501 1063.66 70.5831C1061.5 71.8061 1059.08 72.4176 1056.38 72.4176C1053.67 72.4176 1051.23 71.8011 1049.08 70.5682C1046.92 69.3352 1045.21 67.5504 1043.96 65.2138C1042.71 62.8771 1042.08 60.0483 1042.08 56.7273C1042.08 53.3963 1042.71 50.5625 1043.96 48.2259C1045.21 45.8892 1046.92 44.1094 1049.08 42.8864C1051.23 41.6534 1053.67 41.0369 1056.38 41.0369C1059.08 41.0369 1061.5 41.6534 1063.66 42.8864C1065.83 44.1094 1067.54 45.8892 1068.79 48.2259C1070.06 50.5625 1070.69 53.3963 1070.69 56.7273ZM1064.14 56.7273C1064.14 54.5696 1063.82 52.75 1063.17 51.2685C1062.53 49.7869 1061.63 48.6634 1060.47 47.8977C1059.31 47.1321 1057.95 46.7493 1056.38 46.7493C1054.82 46.7493 1053.46 47.1321 1052.3 47.8977C1051.13 48.6634 1050.23 49.7869 1049.58 51.2685C1048.95 52.75 1048.63 54.5696 1048.63 56.7273C1048.63 58.8849 1048.95 60.7045 1049.58 62.1861C1050.23 63.6676 1051.13 64.7912 1052.3 65.5568C1053.46 66.3224 1054.82 66.7053 1056.38 66.7053C1057.95 66.7053 1059.31 66.3224 1060.47 65.5568C1061.63 64.7912 1062.53 63.6676 1063.17 62.1861C1063.82 60.7045 1064.14 58.8849 1064.14 56.7273ZM1103.54 56.7273C1103.54 60.0582 1102.91 62.892 1101.65 65.2287C1100.39 67.5653 1098.68 69.3501 1096.52 70.5831C1094.36 71.8061 1091.93 72.4176 1089.24 72.4176C1086.52 72.4176 1084.09 71.8011 1081.93 70.5682C1079.77 69.3352 1078.07 67.5504 1076.81 65.2138C1075.56 62.8771 1074.93 60.0483 1074.93 56.7273C1074.93 53.3963 1075.56 50.5625 1076.81 48.2259C1078.07 45.8892 1079.77 44.1094 1081.93 42.8864C1084.09 41.6534 1086.52 41.0369 1089.24 41.0369C1091.93 41.0369 1094.36 41.6534 1096.52 42.8864C1098.68 44.1094 1100.39 45.8892 1101.65 48.2259C1102.91 50.5625 1103.54 53.3963 1103.54 56.7273ZM1096.99 56.7273C1096.99 54.5696 1096.67 52.75 1096.02 51.2685C1095.39 49.7869 1094.49 48.6634 1093.32 47.8977C1092.16 47.1321 1090.8 46.7493 1089.24 46.7493C1087.68 46.7493 1086.31 47.1321 1085.15 47.8977C1083.99 48.6634 1083.08 49.7869 1082.44 51.2685C1081.8 52.75 1081.48 54.5696 1081.48 56.7273C1081.48 58.8849 1081.8 60.7045 1082.44 62.1861C1083.08 63.6676 1083.99 64.7912 1085.15 65.5568C1086.31 66.3224 1087.68 66.7053 1089.24 66.7053C1090.8 66.7053 1092.16 66.3224 1093.32 65.5568C1094.49 64.7912 1095.39 63.6676 1096.02 62.1861C1096.67 60.7045 1096.99 58.8849 1096.99 56.7273ZM1108.32 72V41.4545H1120.38C1122.69 41.4545 1124.67 41.897 1126.3 42.782C1127.93 43.657 1129.17 44.875 1130.03 46.4361C1130.89 47.9872 1131.32 49.777 1131.32 51.8054C1131.32 53.8338 1130.89 55.6236 1130.01 57.1747C1129.14 58.7259 1127.87 59.9339 1126.21 60.799C1124.56 61.6641 1122.56 62.0966 1120.21 62.0966H1112.53V56.9212H1119.17C1120.41 56.9212 1121.43 56.7074 1122.24 56.2798C1123.06 55.8423 1123.66 55.2408 1124.06 54.4751C1124.47 53.6996 1124.67 52.8097 1124.67 51.8054C1124.67 50.7912 1124.47 49.9062 1124.06 49.1506C1123.66 48.3849 1123.06 47.7933 1122.24 47.3757C1121.42 46.9482 1120.39 46.7344 1119.14 46.7344H1114.78V72H1108.32ZM1150.5 72H1143.58L1154.13 41.4545H1162.45L1172.98 72H1166.06L1158.41 48.4347H1158.17L1150.5 72ZM1150.07 59.9936H1166.42V65.0348H1150.07V59.9936ZM1171.76 46.7791V41.4545H1196.85V46.7791H1187.5V72H1181.11V46.7791H1171.76ZM1215.96 72H1209.04L1219.59 41.4545H1227.91L1238.44 72H1231.52L1223.87 48.4347H1223.63L1215.96 72ZM1215.53 59.9936H1231.88V65.0348H1215.53V59.9936ZM1250.68 46.7791V41.4545H1275.76V46.7791H1266.41V72H1260.03V46.7791H1250.68ZM1286.35 41.4545V72H1279.89V41.4545H1286.35ZM1291.66 41.4545H1299.63L1308.04 61.9773H1308.4L1316.81 41.4545H1324.78V72H1318.51V52.1186H1318.26L1310.35 71.8509H1306.09L1298.18 52.044H1297.93V72H1291.66V41.4545ZM1330.1 72V41.4545H1350.68V46.7791H1336.55V54.0575H1349.62V59.3821H1336.55V66.6754H1350.74V72H1330.1ZM1363.29 41.4545L1362.7 62.8423H1357.24L1356.65 41.4545H1363.29ZM1359.97 72.3878C1358.99 72.3878 1358.14 72.0398 1357.44 71.3438C1356.73 70.6378 1356.38 69.7926 1356.39 68.8082C1356.38 67.8338 1356.73 66.9986 1357.44 66.3026C1358.14 65.6065 1358.99 65.2585 1359.97 65.2585C1360.92 65.2585 1361.75 65.6065 1362.47 66.3026C1363.18 66.9986 1363.54 67.8338 1363.55 68.8082C1363.54 69.4645 1363.37 70.0661 1363.03 70.6129C1362.7 71.1499 1362.27 71.5824 1361.73 71.9105C1361.2 72.2287 1360.61 72.3878 1359.97 72.3878Z" fill="#A7A9AC"/>
<g clip-path="url(#clip2_2276_10)">
<g clip-path="url(#clip3_2276_10)">
<path fill-rule="evenodd" clip-rule="evenodd" d="M45 266V86H70V266H45ZM67 162H57.5H48C48 157.444 51.8161 150 57.5 150C63.1839 150 67 157.444 67 162ZM48.0001 164L57.5001 196L67.0001 164H48.0001Z" fill="white"/>
<line x1="111.5" y1="266" x2="111.5" y2="86" stroke="white" stroke-width="5"/>
<line x1="155.5" y1="266" x2="155.5" y2="86" stroke="white" stroke-width="5"/>
<path fill-rule="evenodd" clip-rule="evenodd" d="M202 266V86H227V266H202ZM224 162H214.5H205C205 157.444 208.816 150 214.5 150C220.184 150 224 157.444 224 162ZM205 164L214.5 196L224 164H205Z" fill="white"/>
<line x1="268.5" y1="266" x2="268.5" y2="86" stroke="white" stroke-width="5"/>
<line x1="312.5" y1="266" x2="312.5" y2="86" stroke="white" stroke-width="5"/>
<path fill-rule="evenodd" clip-rule="evenodd" d="M359 266V86H384V266H359ZM381 162H371.5H362C362 157.444 365.816 150 371.5 150C377.184 150 381 157.444 381 162ZM362 164L371.5 196L381 164H362Z" fill="white"/>
<line x1="425.5" y1="266" x2="425.5" y2="86" stroke="white" stroke-width="5"/>
<line x1="469.5" y1="266" x2="469.5" y2="86" stroke="white" stroke-width="5"/>
<path fill-rule="evenodd" clip-rule="evenodd" d="M516 266V86H541V266H516ZM538 162H528.5H519C519 157.444 522.816 150 528.5 150C534.184 150 538 157.444 538 162ZM519 164L528.5 196L538 164H519Z" fill="white"/>
<line x1="582.5" y1="266" x2="582.5" y2="86" stroke="white" stroke-width="5"/>
<line x1="626.5" y1="266" x2="626.5" y2="86" stroke="white" stroke-width="5"/>
<path fill-rule="evenodd" clip-rule="evenodd" d="M673 266V86H698V266H673ZM695 162H685.5H676C676 157.444 679.816 150 685.5 150C691.184 150 695 157.444 695 162ZM676 164L685.5 196L695 164H676Z" fill="white"/>
<path fill-rule="evenodd" clip-rule="evenodd" d="M742 266V86H767V266H742ZM764 162H754.5H745C745 157.444 748.816 150 754.5 150C760.184 150 764 157.444 764 162ZM745 164L754.5 196L764 164H745Z" fill="white"/>
<line x1="808.5" y1="266" x2="808.5" y2="86" stroke="white" stroke-width="5"/>
<line x1="852.5" y1="266" x2="852.5" y2="86" stroke="white" stroke-width="5"/>
<path fill-rule="evenodd" clip-rule="evenodd" d="M899 266V86H924V266H899ZM921 162H911.5H902C902 157.444 905.816 150 911.5 150C917.184 150 921 157.444 921 162ZM902 164L911.5 196L921 164H902Z" fill="white"/>
<line x1="965.5" y1="266" x2="965.5" y2="86" stroke="white" stroke-width="5"/>
<line x1="1009.5" y1="266" x2="1009.5" y2="86" stroke="white" stroke-width="5"/>
<path fill-rule="evenodd" clip-rule="evenodd" d="M1056 266V86H1081V266H1056ZM1078 162H1068.5H1059C1059 157.444 1062.82 150 1068.5 150C1074.18 150 1078 157.444 1078 162ZM1059 164L1068.5 196L1078 164H1059Z" fill="white"/>
<line x1="1122.5" y1="266" x2="1122.5" y2="86" stroke="white" stroke-width="5"/>
<line x1="1166.5" y1="266" x2="1166.5" y2="86" stroke="white" stroke-width="5"/>
<path fill-rule="evenodd" clip-rule="evenodd" d="M1213 266V86H1238V266H1213ZM1235 162H1225.5H1216C1216 157.444 1219.82 150 1225.5 150C1231.18 150 1235 157.444 1235 162ZM1216 164L1225.5 196L1235 164H1216Z" fill="white"/>
<line x1="1279.5" y1="266" x2="1279.5" y2="86" stroke="white" stroke-width="5"/>
<line x1="1323.5" y1="266" x2="1323.5" y2="86" stroke="white" stroke-width="5"/>
<path fill-rule="evenodd" clip-rule="evenodd" d="M1370 266V86H1395V266H1370ZM1392 162H1382.5H1373C1373 157.444 1376.82 150 1382.5 150C1388.18 150 1392 157.444 1392 162ZM1373 164L1382.5 196L1392 164H1373Z" fill="white"/>
</g>
<rect x="2" y="88" width="1436" height="24" stroke="white" stroke-width="4"/>
</g>
<defs>
<clipPath id="clip0_2276_10">
<rect width="1440" height="28" fill="white"/>
</clipPath>
<clipPath id="clip1_2276_10">
<rect width="1440" height="28" fill="white"/>
</clipPath>
<clipPath id="clip2_2276_10">
<rect width="1440" height="28" fill="white" transform="translate(0 86)"/>
</clipPath>
<clipPath id="clip3_2276_10">
<rect y="86" width="1440" height="28" fill="white"/>
</clipPath>
</defs>
</svg>
