<svg width="430" height="70" viewBox="0 0 430 70" fill="none" xmlns="http://www.w3.org/2000/svg">
<rect width="430" height="68" transform="translate(0 1)" fill="#F1D5C9" fill-opacity="0.57"/>
<g clip-path="url(#clip0_2726_145)">
<g clip-path="url(#clip1_2726_145)">
<path fill-rule="evenodd" clip-rule="evenodd" d="M45 180.5V0.5H70V180.5H45ZM67 76.5H57.5H48C48 71.9436 51.8161 64.5 57.5 64.5C63.1839 64.5 67 71.9436 67 76.5ZM48.0001 78.5L57.5001 110.5L67.0001 78.5H48.0001Z" fill="white"/>
<line x1="111.5" y1="180.5" x2="111.5" y2="0.5" stroke="white" stroke-width="5"/>
<line x1="155.5" y1="180.5" x2="155.5" y2="0.5" stroke="white" stroke-width="5"/>
<path fill-rule="evenodd" clip-rule="evenodd" d="M202 180.5V0.5H227V180.5H202ZM224 76.5H214.5H205C205 71.9436 208.816 64.5 214.5 64.5C220.184 64.5 224 71.9436 224 76.5ZM205 78.5L214.5 110.5L224 78.5H205Z" fill="white"/>
<line x1="268.5" y1="180.5" x2="268.5" y2="0.5" stroke="white" stroke-width="5"/>
<line x1="312.5" y1="180.5" x2="312.5" y2="0.5" stroke="white" stroke-width="5"/>
<path fill-rule="evenodd" clip-rule="evenodd" d="M359 180.5V0.5H384V180.5H359ZM381 76.5H371.5H362C362 71.9436 365.816 64.5 371.5 64.5C377.184 64.5 381 71.9436 381 76.5ZM362 78.5L371.5 110.5L381 78.5H362Z" fill="white"/>
<line x1="425.5" y1="180.5" x2="425.5" y2="0.5" stroke="white" stroke-width="5"/>
</g>
<rect x="2" y="2.5" width="1436" height="16" stroke="white" stroke-width="4"/>
</g>
<path d="M105.48 41V29.3636H107.94V38.9716H112.929V41H105.48ZM124.798 35.1818C124.798 36.4508 124.558 37.5303 124.077 38.4205C123.599 39.3106 122.948 39.9905 122.122 40.4602C121.3 40.9261 120.376 41.1591 119.349 41.1591C118.315 41.1591 117.387 40.9242 116.565 40.4545C115.743 39.9848 115.094 39.3049 114.616 38.4148C114.139 37.5246 113.901 36.447 113.901 35.1818C113.901 33.9129 114.139 32.8333 114.616 31.9432C115.094 31.053 115.743 30.375 116.565 29.9091C117.387 29.4394 118.315 29.2045 119.349 29.2045C120.376 29.2045 121.3 29.4394 122.122 29.9091C122.948 30.375 123.599 31.053 124.077 31.9432C124.558 32.8333 124.798 33.9129 124.798 35.1818ZM122.304 35.1818C122.304 34.3598 122.181 33.6667 121.935 33.1023C121.692 32.5379 121.349 32.1098 120.906 31.8182C120.463 31.5265 119.944 31.3807 119.349 31.3807C118.755 31.3807 118.236 31.5265 117.793 31.8182C117.349 32.1098 117.005 32.5379 116.759 33.1023C116.516 33.6667 116.395 34.3598 116.395 35.1818C116.395 36.0038 116.516 36.697 116.759 37.2614C117.005 37.8258 117.349 38.2538 117.793 38.5455C118.236 38.8371 118.755 38.983 119.349 38.983C119.944 38.983 120.463 38.8371 120.906 38.5455C121.349 38.2538 121.692 37.8258 121.935 37.2614C122.181 36.697 122.304 36.0038 122.304 35.1818ZM136.888 33.4375H134.399C134.354 33.1155 134.261 32.8295 134.121 32.5795C133.981 32.3258 133.801 32.1098 133.581 31.9318C133.361 31.7538 133.107 31.6174 132.82 31.5227C132.536 31.428 132.227 31.3807 131.893 31.3807C131.291 31.3807 130.767 31.5303 130.32 31.8295C129.873 32.125 129.526 32.5568 129.28 33.125C129.034 33.6894 128.911 34.375 128.911 35.1818C128.911 36.0114 129.034 36.7083 129.28 37.2727C129.53 37.8371 129.878 38.2633 130.325 38.5511C130.772 38.839 131.289 38.983 131.876 38.983C132.206 38.983 132.511 38.9394 132.791 38.8523C133.075 38.7652 133.327 38.6383 133.547 38.4716C133.767 38.3011 133.948 38.0947 134.092 37.8523C134.24 37.6098 134.342 37.3333 134.399 37.0227L136.888 37.0341C136.823 37.5682 136.662 38.0833 136.405 38.5795C136.151 39.072 135.808 39.5133 135.376 39.9034C134.948 40.2898 134.437 40.5966 133.842 40.8239C133.251 41.0473 132.583 41.1591 131.837 41.1591C130.799 41.1591 129.871 40.9242 129.053 40.4545C128.238 39.9848 127.594 39.3049 127.121 38.4148C126.651 37.5246 126.416 36.447 126.416 35.1818C126.416 33.9129 126.655 32.8333 127.132 31.9432C127.609 31.053 128.257 30.375 129.075 29.9091C129.893 29.4394 130.814 29.2045 131.837 29.2045C132.511 29.2045 133.136 29.2992 133.712 29.4886C134.291 29.678 134.804 29.9545 135.251 30.3182C135.698 30.678 136.062 31.1193 136.342 31.642C136.626 32.1648 136.808 32.7633 136.888 33.4375ZM140.439 41H137.803L141.82 29.3636H144.99L149.001 41H146.365L143.45 32.0227H143.359L140.439 41ZM140.274 36.4261H146.501V38.3466H140.274V36.4261ZM150.402 41V29.3636H152.862V38.9716H157.851V41H150.402ZM163.183 41V29.3636H170.888V31.392H165.643V34.1648H170.376V36.1932H165.643V41H163.183ZM172.543 41V29.3636H177.134C178.012 29.3636 178.762 29.5208 179.384 29.8352C180.009 30.1458 180.484 30.5871 180.81 31.1591C181.139 31.7273 181.304 32.3958 181.304 33.1648C181.304 33.9375 181.137 34.6023 180.804 35.1591C180.471 35.7121 179.988 36.1364 179.355 36.4318C178.726 36.7273 177.965 36.875 177.071 36.875H173.997V34.8977H176.673C177.143 34.8977 177.533 34.8333 177.844 34.7045C178.154 34.5758 178.385 34.3826 178.537 34.125C178.692 33.8674 178.77 33.5473 178.77 33.1648C178.77 32.7784 178.692 32.4527 178.537 32.1875C178.385 31.9223 178.152 31.7216 177.838 31.5852C177.527 31.4451 177.135 31.375 176.662 31.375H175.003V41H172.543ZM178.827 35.7045L181.719 41H179.003L176.173 35.7045H178.827ZM183.043 41V29.3636H190.884V31.392H185.503V34.1648H190.48V36.1932H185.503V38.9716H190.906V41H183.043ZM199.152 32.7102C199.107 32.2519 198.911 31.8958 198.567 31.642C198.222 31.3883 197.754 31.2614 197.163 31.2614C196.762 31.2614 196.423 31.3182 196.146 31.4318C195.87 31.5417 195.658 31.6951 195.51 31.892C195.366 32.089 195.294 32.3125 195.294 32.5625C195.286 32.7708 195.33 32.9527 195.425 33.108C195.523 33.2633 195.658 33.3977 195.828 33.5114C195.999 33.6212 196.196 33.7178 196.419 33.8011C196.643 33.8807 196.881 33.9489 197.135 34.0057L198.18 34.2557C198.688 34.3693 199.154 34.5208 199.578 34.7102C200.002 34.8996 200.37 35.1326 200.68 35.4091C200.991 35.6856 201.232 36.0114 201.402 36.3864C201.576 36.7614 201.665 37.1913 201.669 37.6761C201.665 38.3883 201.483 39.0057 201.124 39.5284C200.768 40.0473 200.252 40.4508 199.578 40.7386C198.908 41.0227 198.099 41.1648 197.152 41.1648C196.213 41.1648 195.394 41.0208 194.697 40.733C194.004 40.4451 193.463 40.0189 193.072 39.4545C192.686 38.8864 192.483 38.1837 192.464 37.3466H194.845C194.872 37.7367 194.983 38.0625 195.18 38.3239C195.381 38.5814 195.648 38.7765 195.982 38.9091C196.319 39.0379 196.699 39.1023 197.124 39.1023C197.54 39.1023 197.902 39.0417 198.209 38.9205C198.519 38.7992 198.76 38.6307 198.93 38.4148C199.101 38.1989 199.186 37.9508 199.186 37.6705C199.186 37.4091 199.108 37.1894 198.953 37.0114C198.802 36.8333 198.578 36.6818 198.283 36.5568C197.991 36.4318 197.633 36.3182 197.209 36.2159L195.942 35.8977C194.961 35.6591 194.186 35.286 193.618 34.7784C193.05 34.2708 192.768 33.5871 192.771 32.7273C192.768 32.0227 192.955 31.4072 193.334 30.8807C193.716 30.3542 194.241 29.9432 194.908 29.6477C195.574 29.3523 196.332 29.2045 197.18 29.2045C198.044 29.2045 198.798 29.3523 199.442 29.6477C200.089 29.9432 200.593 30.3542 200.953 30.8807C201.313 31.4072 201.499 32.017 201.51 32.7102H199.152ZM203.324 41V29.3636H205.784V34.1648H210.778V29.3636H213.233V41H210.778V36.1932H205.784V41H203.324ZM221.425 29.3636V41H218.964V29.3636H221.425ZM233.182 29.3636V41H231.057L225.994 33.6761H225.909V41H223.449V29.3636H225.608L230.631 36.6818H230.733V29.3636H233.182ZM242.93 33.125C242.851 32.8485 242.739 32.6042 242.595 32.392C242.451 32.1761 242.275 31.9943 242.067 31.8466C241.862 31.6951 241.627 31.5795 241.362 31.5C241.101 31.4205 240.811 31.3807 240.493 31.3807C239.898 31.3807 239.375 31.5284 238.925 31.8239C238.478 32.1193 238.129 32.5492 237.879 33.1136C237.629 33.6742 237.504 34.3598 237.504 35.1705C237.504 35.9811 237.627 36.6705 237.874 37.2386C238.12 37.8068 238.468 38.2405 238.919 38.5398C239.37 38.8352 239.902 38.983 240.516 38.983C241.072 38.983 241.548 38.8845 241.942 38.6875C242.339 38.4867 242.643 38.2045 242.851 37.8409C243.063 37.4773 243.169 37.0473 243.169 36.5511L243.669 36.625H240.669V34.7727H245.538V36.2386C245.538 37.2614 245.322 38.1402 244.891 38.875C244.459 39.6061 243.864 40.1705 243.107 40.5682C242.349 40.9621 241.482 41.1591 240.504 41.1591C239.413 41.1591 238.455 40.9186 237.629 40.4375C236.804 39.9527 236.16 39.2652 235.697 38.375C235.239 37.4811 235.01 36.4205 235.01 35.1932C235.01 34.25 235.146 33.4091 235.419 32.6705C235.696 31.928 236.082 31.2992 236.578 30.7841C237.074 30.2689 237.652 29.8769 238.311 29.608C238.97 29.339 239.684 29.2045 240.453 29.2045C241.112 29.2045 241.726 29.3011 242.294 29.4943C242.862 29.6837 243.366 29.9527 243.805 30.3011C244.249 30.6496 244.61 31.0644 244.891 31.5455C245.171 32.0227 245.351 32.5492 245.43 33.125H242.93ZM247.386 41V29.3636H251.977C252.856 29.3636 253.606 29.5208 254.227 29.8352C254.852 30.1458 255.328 30.5871 255.653 31.1591C255.983 31.7273 256.148 32.3958 256.148 33.1648C256.148 33.9375 255.981 34.6023 255.648 35.1591C255.314 35.7121 254.831 36.1364 254.199 36.4318C253.57 36.7273 252.809 36.875 251.915 36.875H248.841V34.8977H251.517C251.987 34.8977 252.377 34.8333 252.688 34.7045C252.998 34.5758 253.229 34.3826 253.381 34.125C253.536 33.8674 253.614 33.5473 253.614 33.1648C253.614 32.7784 253.536 32.4527 253.381 32.1875C253.229 31.9223 252.996 31.7216 252.682 31.5852C252.371 31.4451 251.979 31.375 251.506 31.375H249.847V41H247.386ZM253.67 35.7045L256.562 41H253.847L251.017 35.7045H253.67ZM257.886 41V29.3636H265.727V31.392H260.347V34.1648H265.324V36.1932H260.347V38.9716H265.75V41H257.886ZM271.808 41H267.683V29.3636H271.842C273.013 29.3636 274.02 29.5966 274.865 30.0625C275.71 30.5246 276.359 31.1894 276.814 32.0568C277.272 32.9242 277.501 33.9621 277.501 35.1705C277.501 36.3826 277.272 37.4242 276.814 38.2955C276.359 39.1667 275.706 39.8352 274.854 40.3011C274.005 40.767 272.99 41 271.808 41ZM270.143 38.892H271.706C272.433 38.892 273.045 38.7633 273.541 38.5057C274.041 38.2443 274.416 37.8409 274.666 37.2955C274.92 36.7462 275.047 36.0379 275.047 35.1705C275.047 34.3106 274.92 33.608 274.666 33.0625C274.416 32.517 274.043 32.1155 273.547 31.858C273.051 31.6004 272.439 31.4716 271.712 31.4716H270.143V38.892ZM281.784 29.3636V41H279.324V29.3636H281.784ZM283.808 41V29.3636H291.649V31.392H286.268V34.1648H291.246V36.1932H286.268V38.9716H291.672V41H283.808ZM303.338 29.3636V41H301.213L296.151 33.6761H296.065V41H293.605V29.3636H295.764L300.787 36.6818H300.889V29.3636H303.338ZM304.928 31.392V29.3636H314.484V31.392H310.922V41H308.49V31.392H304.928ZM322.371 32.7102C322.325 32.2519 322.13 31.8958 321.786 31.642C321.441 31.3883 320.973 31.2614 320.382 31.2614C319.981 31.2614 319.642 31.3182 319.365 31.4318C319.089 31.5417 318.876 31.6951 318.729 31.892C318.585 32.089 318.513 32.3125 318.513 32.5625C318.505 32.7708 318.549 32.9527 318.643 33.108C318.742 33.2633 318.876 33.3977 319.047 33.5114C319.217 33.6212 319.414 33.7178 319.638 33.8011C319.861 33.8807 320.1 33.9489 320.354 34.0057L321.399 34.2557C321.907 34.3693 322.373 34.5208 322.797 34.7102C323.221 34.8996 323.589 35.1326 323.899 35.4091C324.21 35.6856 324.45 36.0114 324.621 36.3864C324.795 36.7614 324.884 37.1913 324.888 37.6761C324.884 38.3883 324.702 39.0057 324.342 39.5284C323.986 40.0473 323.471 40.4508 322.797 40.7386C322.126 41.0227 321.318 41.1648 320.371 41.1648C319.431 41.1648 318.613 41.0208 317.916 40.733C317.223 40.4451 316.681 40.0189 316.291 39.4545C315.905 38.8864 315.702 38.1837 315.683 37.3466H318.064C318.09 37.7367 318.202 38.0625 318.399 38.3239C318.6 38.5814 318.867 38.7765 319.2 38.9091C319.537 39.0379 319.918 39.1023 320.342 39.1023C320.759 39.1023 321.121 39.0417 321.428 38.9205C321.738 38.7992 321.979 38.6307 322.149 38.4148C322.32 38.1989 322.405 37.9508 322.405 37.6705C322.405 37.4091 322.327 37.1894 322.172 37.0114C322.02 36.8333 321.797 36.6818 321.501 36.5568C321.21 36.4318 320.852 36.3182 320.428 36.2159L319.161 35.8977C318.179 35.6591 317.405 35.286 316.837 34.7784C316.268 34.2708 315.986 33.5871 315.99 32.7273C315.986 32.0227 316.174 31.4072 316.553 30.8807C316.935 30.3542 317.46 29.9432 318.126 29.6477C318.793 29.3523 319.551 29.2045 320.399 29.2045C321.263 29.2045 322.017 29.3523 322.661 29.6477C323.308 29.9432 323.812 30.3542 324.172 30.8807C324.532 31.4072 324.717 32.017 324.729 32.7102H322.371Z" fill="#E5BAB4"/>
<g clip-path="url(#clip2_2726_145)">
<g clip-path="url(#clip3_2726_145)">
<path fill-rule="evenodd" clip-rule="evenodd" d="M45 230.5V50.5H70V230.5H45ZM67 126.5H57.5H48C48 121.944 51.8161 114.5 57.5 114.5C63.1839 114.5 67 121.944 67 126.5ZM48.0001 128.5L57.5001 160.5L67.0001 128.5H48.0001Z" fill="white"/>
<line x1="111.5" y1="230.5" x2="111.5" y2="50.5" stroke="white" stroke-width="5"/>
<line x1="155.5" y1="230.5" x2="155.5" y2="50.5" stroke="white" stroke-width="5"/>
<path fill-rule="evenodd" clip-rule="evenodd" d="M202 230.5V50.5H227V230.5H202ZM224 126.5H214.5H205C205 121.944 208.816 114.5 214.5 114.5C220.184 114.5 224 121.944 224 126.5ZM205 128.5L214.5 160.5L224 128.5H205Z" fill="white"/>
<line x1="268.5" y1="230.5" x2="268.5" y2="50.5" stroke="white" stroke-width="5"/>
<line x1="312.5" y1="230.5" x2="312.5" y2="50.5" stroke="white" stroke-width="5"/>
<path fill-rule="evenodd" clip-rule="evenodd" d="M359 230.5V50.5H384V230.5H359ZM381 126.5H371.5H362C362 121.944 365.816 114.5 371.5 114.5C377.184 114.5 381 121.944 381 126.5ZM362 128.5L371.5 160.5L381 128.5H362Z" fill="white"/>
<line x1="425.5" y1="230.5" x2="425.5" y2="50.5" stroke="white" stroke-width="5"/>
</g>
<rect x="2" y="52.5" width="1436" height="16" stroke="white" stroke-width="4"/>
</g>
<defs>
<clipPath id="clip0_2726_145">
<rect width="430" height="20" fill="white"/>
</clipPath>
<clipPath id="clip1_2726_145">
<rect y="0.5" width="1440" height="20" fill="white"/>
</clipPath>
<clipPath id="clip2_2726_145">
<rect width="430" height="20" fill="white" transform="translate(0 50)"/>
</clipPath>
<clipPath id="clip3_2726_145">
<rect y="50.5" width="1440" height="20" fill="white"/>
</clipPath>
</defs>
</svg>
